<?xml version="1.0" encoding="UTF-8"?>
<svg width="690px" height="240px" viewBox="0 0 690 240" version="1.1" xmlns="http://www.w3.org/2000/svg" xmlns:xlink="http://www.w3.org/1999/xlink">
    <title>bg-jiaoyi</title>
    <defs>
        <linearGradient x1="50%" y1="11.4701055%" x2="50%" y2="100%" id="linearGradient-1">
            <stop stop-color="#FFFFFF" offset="0%"></stop>
            <stop stop-color="#E2EDFA" offset="100%"></stop>
        </linearGradient>
        <rect id="path-2" x="0" y="0" width="690" height="240" rx="20"></rect>
        <linearGradient x1="34.9240402%" y1="57.311169%" x2="30.6281322%" y2="68.3540936%" id="linearGradient-4">
            <stop stop-color="#FFFFFF" stop-opacity="0" offset="0%"></stop>
            <stop stop-color="#FFFFFF" stop-opacity="0.706429648" offset="100%"></stop>
        </linearGradient>
        <linearGradient x1="14.6219682%" y1="73.554566%" x2="11.3999033%" y2="76.0547744%" id="linearGradient-5">
            <stop stop-color="#FFFFFF" stop-opacity="0" offset="0%"></stop>
            <stop stop-color="#FFFFFF" stop-opacity="0.642934412" offset="100%"></stop>
        </linearGradient>
        <path d="M0.30211672,0.292576192 L0.30211672,1.37383603 C0.30211672,15.7617473 11.9662072,27.4258378 26.3541185,27.4258378 L26.3541185,27.4258378 L42.2804399,27.4258378 C56.6683512,27.4258378 68.3324417,15.7617473 68.3324417,1.37383603 L68.3324417,1.37383603 L68.3324417,0.292576192 L0.30211672,0.292576192 Z" id="path-6"></path>
        <path d="M4.74879781,0.546990272 C2.26905558,0.546990272 0.259184344,2.55606646 0.259184344,5.03660374 L0.259184344,5.03660374 L0.259184344,12.6388145 L44.4986127,12.6388145 L44.4986127,5.03660374 C44.4986127,2.55606646 42.4887415,0.546990272 40.0089992,0.546990272 L40.0089992,0.546990272 L4.74879781,0.546990272 Z" id="path-8"></path>
        <polygon id="path-10" points="0 168.549328 178.833222 168.549328 178.833222 0.303706808 0 0.303706808"></polygon>
        <polygon id="path-12" points="0.730645436 0.345049096 6.28482282 0.345049096 6.28482282 127.75403 0.730645436 127.75403"></polygon>
        <path d="M0.776757988,9.13187539 C0.776757988,13.7876531 4.55083186,17.5609319 9.20660952,17.5609319 L9.20660952,17.5609319 C13.8623872,17.5609319 17.6364611,13.7876531 17.6364611,9.13187539 L17.6364611,9.13187539 C17.6364611,4.47530268 13.8623872,0.701228808 9.20660952,0.701228808 L9.20660952,0.701228808 C4.55083186,0.701228808 0.776757988,4.47530268 0.776757988,9.13187539" id="path-14"></path>
        <path d="M0.170139416,0.292576192 L0.170139416,1.37383603 C0.170139416,15.7617473 11.8334349,27.4258378 26.2213462,27.4258378 L26.2213462,27.4258378 L42.1476676,27.4258378 C56.5355789,27.4258378 68.1996694,15.7617473 68.1996694,1.37383603 L68.1996694,1.37383603 L68.1996694,0.292576192 L0.170139416,0.292576192 Z" id="path-16"></path>
        <filter id="filter-18">
            <feColorMatrix in="SourceGraphic" type="matrix" values="0 0 0 0 1.000000 0 0 0 0 1.000000 0 0 0 0 1.000000 0 0 0 1.000000 0"></feColorMatrix>
        </filter>
        <filter id="filter-19">
            <feColorMatrix in="SourceGraphic" type="matrix" values="0 0 0 0 1.000000 0 0 0 0 0.215686 0 0 0 0 0.462745 0 0 0 1.000000 0"></feColorMatrix>
        </filter>
        <filter id="filter-20">
            <feColorMatrix in="SourceGraphic" type="matrix" values="0 0 0 0 0.772549 0 0 0 0 0.635294 0 0 0 0 0.988235 0 0 0 1.000000 0"></feColorMatrix>
        </filter>
    </defs>
    <g id="页面-1" stroke="none" stroke-width="1" fill="none" fill-rule="evenodd">
        <g id="首页" transform="translate(-30.000000, -857.000000)">
            <g id="bg-jiaoyi" transform="translate(30.000000, 857.000000)">
                <g id="编组">
                    <mask id="mask-3" fill="white">
                        <use xlink:href="#path-2"></use>
                    </mask>
                    <use id="矩形备份-2" fill="url(#linearGradient-1)" xlink:href="#path-2"></use>
                    <ellipse id="椭圆形" fill="url(#linearGradient-4)" opacity="0.5" mask="url(#mask-3)" cx="476.797753" cy="-45.7359551" rx="395.393258" ry="252.61236"></ellipse>
                    <ellipse id="椭圆形" fill="url(#linearGradient-5)" opacity="0.699999988" mask="url(#mask-3)" cx="688.707865" cy="-62.5337079" rx="414.775281" ry="384.410112"></ellipse>
                </g>
                <g id="img" transform="translate(422.000000, 30.000000)">
                    <g id="编组-5" transform="translate(22.720663, 17.409334)" stroke="#10153F" stroke-linecap="round" stroke-linejoin="round" stroke-width="2.385132">
                        <path d="M81.6162357,17.9830011 C81.6162357,17.9830011 59.0595219,9.1429069 30.1975849,19.2407608 C25.7792987,20.7863263 21.1606297,21.3682985 16.5396837,21.3873796 C10.3695671,21.4120259 3.70152982,19.4896095 1.50263353,14.945138 C-4.3547647,4.11107343 8.34980074,-4.04130775 14.9548389,2.12823369" id="Stroke-1"></path>
                        <path d="M84.9703275,17.9830011 C84.9703275,17.9830011 107.527799,9.1429069 136.388976,19.2407608 C140.807262,20.7863263 145.426689,21.3682985 150.046876,21.3873796 C156.217751,21.4120259 162.885788,19.4896095 165.083925,14.945138 C170.941323,4.11107343 158.236759,-4.04130775 151.63248,2.12823369" id="Stroke-3"></path>
                    </g>
                    <g id="编组" transform="translate(18.779396, 28.410159)">
                        <path d="M40.717061,6.65427977 C40.717061,9.11891617 39.3758218,11.2734854 37.3754911,12.4175537 C36.4071275,12.9788548 35.2837303,13.2952823 34.0832139,13.2952823 C32.8826974,13.2952823 31.7600953,12.9788548 30.7917317,12.4175537 C28.790606,11.2734854 27.4501618,9.11891617 27.4501618,6.65427977 C27.4501618,2.99071702 30.4188561,0.0204326308 34.0832139,0.0204326308 C37.7475717,0.0204326308 40.717061,2.99071702 40.717061,6.65427977" id="Fill-5" fill="#C5A2FC"></path>
                        <path d="M40.717061,6.65427977 C40.717061,9.11891617 39.3758218,11.2734854 37.3754911,12.4175537 C36.4071275,12.9788548 35.2837303,13.2952823 34.0832139,13.2952823 C32.8826974,13.2952823 31.7600953,12.9788548 30.7917317,12.4175537 C28.790606,11.2734854 27.4501618,9.11891617 27.4501618,6.65427977 C27.4501618,2.99071702 30.4188561,0.0204326308 34.0832139,0.0204326308 C37.7475717,0.0204326308 40.717061,2.99071702 40.717061,6.65427977 Z" id="Stroke-7" stroke="#10153F" stroke-width="2.385132"></path>
                        <path d="M68.100682,66.2297889 L0.0663817809,66.2297889 L30.7916522,12.4172357 C31.7600158,12.9785368 32.883413,13.2949643 34.0831344,13.2949643 C35.2836508,13.2949643 36.407048,12.9785368 37.3754116,12.4172357 L68.100682,66.2297889 Z" id="Stroke-9" stroke="#10153F" stroke-width="2.385132" stroke-linecap="round" stroke-linejoin="round"></path>
                        <path d="M0.0692439393,66.2312995 L0.0692439393,67.3125593 C0.0692439393,81.7004706 11.7333345,93.3645611 26.1212457,93.3645611 L42.0467721,93.3645611 C56.4346834,93.3645611 68.0987739,81.7004706 68.0987739,67.3125593 L68.0987739,66.2312995 L0.0692439393,66.2312995 Z" id="Fill-11" fill="#FF838F"></path>
                    </g>
                    <g id="编组" transform="translate(18.546682, 94.349121)">
                        <mask id="mask-7" fill="white">
                            <use xlink:href="#path-6"></use>
                        </mask>
                        <g id="Clip-14"></g>
                        <path d="M59.1628018,0.292337679 C58.7565343,14.3240692 47.2609931,25.5779171 33.1306761,25.5779171 L17.4428678,25.5779171 C20.4242828,26.7657128 23.6736277,27.4255993 27.0788011,27.4255993 L43.0043275,27.4255993 C57.3922388,27.4255993 69.0563293,15.7615088 69.0563293,1.37359752 L69.0563293,0.292337679 L59.1628018,0.292337679 Z" id="Fill-13" fill="#FF3776" mask="url(#mask-7)"></path>
                    </g>
                    <g id="编组" transform="translate(18.546682, 94.349121)">
                        <path d="M0.301957711,0.292337679 L0.301957711,1.37359752 C0.301957711,15.7615088 11.9660482,27.4255993 26.3539595,27.4255993 L42.2794859,27.4255993 C56.6673972,27.4255993 68.3314877,15.7615088 68.3314877,1.37359752 L68.3314877,0.292337679 L0.301957711,0.292337679 Z" id="Stroke-15" stroke="#10153F" stroke-width="2.385132" stroke-linecap="round" stroke-linejoin="round"></path>
                        <path d="M62.2726959,72.6149462 L62.2726959,80.217952 L106.512124,80.217952 L106.512124,72.6149462 C106.512124,70.135204 104.501458,68.1261278 102.022511,68.1261278 L66.7615143,68.1261278 C64.2825671,68.1261278 62.2726959,70.135204 62.2726959,72.6149462" id="Fill-17" fill="#C4F5F6"></path>
                    </g>
                    <g id="编组" transform="translate(80.560114, 161.927861)">
                        <mask id="mask-9" fill="white">
                            <use xlink:href="#path-8"></use>
                        </mask>
                        <g id="Clip-20"></g>
                        <polygon id="Fill-19" fill="#00E2D1" mask="url(#mask-9)" points="-8.55149327 16.695924 59.8119552 16.695924 59.8119552 8.12852986 -8.55149327 8.12852986"></polygon>
                    </g>
                    <g id="编组" transform="translate(13.776418, 10.074457)">
                        <path d="M67.0429599,156.88961 L67.0429599,164.492616 L111.282388,164.492616 L111.282388,156.88961 C111.282388,154.409868 109.271722,152.400792 106.792775,152.400792 L71.5317783,152.400792 C69.0528311,152.400792 67.0429599,154.409868 67.0429599,156.88961 Z" id="Stroke-21" stroke="#10153F" stroke-width="2.385132"></path>
                        <mask id="mask-11" fill="white">
                            <use xlink:href="#path-10"></use>
                        </mask>
                        <g id="Clip-24"></g>
                        <polygon id="Fill-23" fill="#86ECEE" mask="url(#mask-11)" points="80.6095112 152.400394 97.7156779 152.400394 97.7156779 24.9914131 80.6095112 24.9914131"></polygon>
                    </g>
                    <g id="编组" transform="translate(105.206478, 34.720821)">
                        <mask id="mask-13" fill="white">
                            <use xlink:href="#path-12"></use>
                        </mask>
                        <g id="Clip-26"></g>
                        <polygon id="Fill-25" fill="#00E2D1" mask="url(#mask-13)" points="0.730645436 131.567061 12.7421702 131.567061 12.7421702 -4.30913848 0.730645436 -4.30913848"></polygon>
                    </g>
                    <g id="编组" transform="translate(94.075862, 10.869501)">
                        <polygon id="Stroke-27" stroke="#10153F" stroke-width="2.385132" points="0.31006716 151.60535 17.4162339 151.60535 17.4162339 24.1963691 0.31006716 24.1963691"></polygon>
                        <path d="M18.4315051,9.13179588 C18.4315051,13.7867785 14.6574312,17.5616474 10.0016535,17.5616474 C5.34587586,17.5616474 1.57180199,13.7867785 1.57180199,9.13179588 C1.57180199,4.47601822 5.34587586,0.701149304 10.0016535,0.701149304 C14.6574312,0.701149304 18.4315051,4.47601822 18.4315051,9.13179588" id="Fill-29" fill="#FFCC7D"></path>
                    </g>
                    <g id="编组" transform="translate(94.870906, 10.869501)">
                        <mask id="mask-15" fill="white">
                            <use xlink:href="#path-14"></use>
                        </mask>
                        <g id="Clip-31"></g>
                        <path d="M11.319598,0.798939716 C12.241849,2.15051452 12.7824789,3.78273985 12.7824789,5.54296727 C12.7824789,10.1987449 9.00840505,13.9728188 4.35262739,13.9728188 C3.73726333,13.9728188 3.13939024,13.9028549 2.56139326,13.778033 C4.0799273,16.0033612 6.63281358,17.463857 9.52915887,17.463857 C14.1849365,17.463857 17.9590104,13.6897831 17.9590104,9.03400547 C17.9590104,4.99359186 15.114343,1.62101521 11.319598,0.798939716" id="Fill-30" fill="#FFB24D" mask="url(#mask-15)"></path>
                    </g>
                    <g id="编组" transform="translate(94.870906, 10.869501)">
                        <path d="M17.6364611,9.13179588 C17.6364611,13.7867785 13.8623872,17.5616474 9.20660952,17.5616474 C4.55083186,17.5616474 0.776757988,13.7867785 0.776757988,9.13179588 C0.776757988,4.47601822 4.55083186,0.701149304 9.20660952,0.701149304 C13.8623872,0.701149304 17.6364611,4.47601822 17.6364611,9.13179588 Z" id="Stroke-32" stroke="#10153F" stroke-width="2.385132"></path>
                        <path d="M94.437791,83.7704471 L26.4034908,83.7704471 L57.1279661,29.957894 C58.0971248,30.519195 59.220522,30.8356225 60.4202434,30.8356225 C61.6207598,30.8356225 62.744157,30.519195 63.7125206,29.957894 L94.437791,83.7704471 Z" id="Stroke-34" stroke="#10153F" stroke-width="2.385132" stroke-linecap="round" stroke-linejoin="round"></path>
                        <path d="M26.4064324,83.7719577 L26.4064324,84.8532176 C26.4064324,99.2411288 38.0697279,110.905219 52.4584342,110.905219 L68.3839606,110.905219 C82.7718719,110.905219 94.4359624,99.2411288 94.4359624,84.8532176 L94.4359624,83.7719577 L26.4064324,83.7719577 Z" id="Fill-36" fill="#FF838F"></path>
                    </g>
                    <g id="编组" transform="translate(121.107358, 94.349121)">
                        <mask id="mask-17" fill="white">
                            <use xlink:href="#path-16"></use>
                        </mask>
                        <g id="Clip-39"></g>
                        <path d="M59.0308245,0.292337679 C58.6237619,14.3240692 47.1290158,25.5779171 32.9979037,25.5779171 L17.3108905,25.5779171 C20.2923055,26.7657128 23.5416504,27.4255993 26.9468238,27.4255993 L42.8723502,27.4255993 C57.2602615,27.4255993 68.924352,15.7615088 68.924352,1.37359752 L68.924352,0.292337679 L59.0308245,0.292337679 Z" id="Fill-38" fill="#FF3776" mask="url(#mask-17)"></path>
                    </g>
                    <g id="编组" transform="translate(20.136770, 28.360469)">
                        <path d="M101.140568,66.2809897 L101.140568,67.3622495 C101.140568,81.7501608 112.803864,93.4142513 127.19257,93.4142513 L143.118097,93.4142513 C157.506008,93.4142513 169.170098,81.7501608 169.170098,67.3622495 L169.170098,66.2809897 L101.140568,66.2809897 Z" id="Stroke-40" stroke="#10153F" stroke-width="2.385132" stroke-linecap="round" stroke-linejoin="round"></path>
                        <path d="M141.789896,6.70397002 C141.789896,9.16860642 140.449452,11.3231757 138.448326,12.467244 C137.479963,13.028545 136.35736,13.3449726 135.156844,13.3449726 C133.956328,13.3449726 132.83293,13.028545 131.864567,12.467244 C129.864236,11.3231757 128.515841,9.16860642 128.515841,6.70397002 C128.515841,3.04040727 131.492486,0.0701228808 135.156844,0.0701228808 C138.821202,0.0701228808 141.789896,3.04040727 141.789896,6.70397002" id="Fill-42" fill="#C5A2FC"></path>
                        <path d="M141.789896,6.70397002 C141.789896,9.16860642 140.449452,11.3231757 138.448326,12.467244 C137.479963,13.028545 136.35736,13.3449726 135.156844,13.3449726 C133.956328,13.3449726 132.83293,13.028545 131.864567,12.467244 C129.864236,11.3231757 128.515841,9.16860642 128.515841,6.70397002 C128.515841,3.04040727 131.492486,0.0701228808 135.156844,0.0701228808 C138.821202,0.0701228808 141.789896,3.04040727 141.789896,6.70397002 Z" id="Stroke-44" stroke="#10153F" stroke-width="2.385132"></path>
                        <path d="M136.352749,0.506681541 C137.038872,1.51161716 137.441164,2.72644439 137.441164,4.03429177 C137.441164,7.49829848 134.633069,10.3048038 131.170652,10.3048038 C130.713502,10.3048038 130.268277,10.2531259 129.838954,10.1609008 C130.967916,11.8153874 132.867276,12.9022126 135.021051,12.9022126 C138.484262,12.9022126 141.290767,10.0949122 141.290767,6.63170052 C141.290767,3.6264342 139.175155,1.11807038 136.352749,0.506681541" id="Fill-46" fill="#10153F" opacity="0.300000012"></path>
                        <path d="M33.5144438,0.506681541 C34.2005668,1.51161716 34.602859,2.72644439 34.602859,4.03429177 C34.602859,7.49829848 31.7947636,10.3048038 28.332347,10.3048038 C27.8751967,10.3048038 27.4299721,10.2531259 27.0006483,10.1609008 C28.1296108,11.8153874 30.0289709,12.9022126 32.1827451,12.9022126 C35.6459568,12.9022126 38.4524621,10.0949122 38.4524621,6.63170052 C38.4524621,3.6264342 36.33685,1.11807038 33.5144438,0.506681541" id="Fill-48" fill="#10153F" opacity="0.300000012"></path>
                        <g transform="translate(0.000000, 145.493052)">
                            <line x1="0.320959263" y1="0.713154468" x2="171.280066" y2="0.713154468" id="Fill-50" fill="#FFA4A4"></line>
                            <line x1="0.320959263" y1="0.713154468" x2="171.280066" y2="0.713154468" id="Stroke-52" stroke="#10153F" stroke-width="2.385132" stroke-linecap="round" stroke-linejoin="round"></line>
                        </g>
                    </g>
                    <g id="编组" transform="translate(40.396195, 64.952255)">
                        <circle id="椭圆形" fill="#F4BB0B" cx="13.3098884" cy="13.3098884" r="13.3098884"></circle>
                        <g filter="url(#filter-18)" id="BNB">
                            <g transform="translate(4.839959, 4.839959)">
                                <path d="M7.62207522,9.67991883 L5.58896852,7.86502654 L7.62207522,6.04994927 L9.65518193,7.86502654 L7.62207522,9.67991883 Z M12.2423296,7.86502654 L12.233731,7.87251808 L14.1194181,9.5558924 L16.0134965,7.86493406 L14.1062611,6.16222972 L12.2206777,7.84560406 L12.2423296,7.86502654 Z" id="形状" fill="#F4BB0B" fill-rule="nonzero"></path>
                                <path d="M5.28365344,7.10480647 L8.41330179,3.80644883 L11.5889875,7.15332558 L13.3947638,5.25020574 L8.41330179,0 L3.47777797,5.20158208 L5.28365344,7.10480647 Z M11.6014891,9.77335695 L8.41330179,13.1334091 L5.2533918,9.8029494 L3.44761555,11.7062784 L8.41330179,16.939858 L13.4073645,11.6765813 L11.6014891,9.77335695 Z M3.98845547,8.47003354 L4.05513029,8.39965995 L2.24915559,6.49633096 L0.376704534,8.47003354 L2.21899318,10.4116341 L4.02476943,8.50851421 L3.98845547,8.47003354 Z" id="形状" fill="#F4BB0B" fill-rule="nonzero"></path>
                            </g>
                        </g>
                    </g>
                    <g id="编组" transform="translate(142.616138, 64.952255)" fill-rule="nonzero">
                        <g id="ETH-(1)">
                            <path d="M0,13.3098884 C0,20.6607919 5.95898493,26.6197768 13.3098884,26.6197768 C20.6607919,26.6197768 26.6197768,20.6607919 26.6197768,13.3098884 C26.6197768,5.95898493 20.6607919,0 13.3098884,0 C5.95898493,0 0,5.95898493 0,13.3098884 Z" id="路径" fill="#627EEA"></path>
                            <g id="编组" transform="translate(7.259939, 3.629970)" fill="#FFFFFF">
                                <polygon id="路径" fill-opacity="0.602" points="6.2370137 3.33152932e-14 6.2370137 7.37811481 12.4737316 10.1655012"></polygon>
                                <polygon id="路径" points="6.2370137 -3.43899801e-14 -9.34977583e-14 10.1655012 6.2370137 7.37929791"></polygon>
                                <polygon id="路径" fill-opacity="0.602" points="6.2370137 14.9470047 6.2370137 19.960396 12.4781683 11.326715"></polygon>
                                <polygon id="路径" points="6.2370137 19.960396 6.2370137 14.9470047 -3.2348075e-13 11.3252361 6.23730948 19.9592129"></polygon>
                                <polygon id="路径" fill-opacity="0.2" points="6.2370137 13.786974 12.4737316 10.1655012 6.2370137 7.38048101"></polygon>
                                <polygon id="路径" fill-opacity="0.602" points="0.000295781075 10.1655012 6.2370137 13.786974 6.2370137 7.38048101 -9.34977583e-14 10.1643181"></polygon>
                            </g>
                        </g>
                    </g>
                    <circle id="椭圆形" stroke="#FFB24D" stroke-width="1.06479107" cx="195.323296" cy="63.3550688" r="3.19437322"></circle>
                    <circle id="椭圆形备份-2" stroke="#00E2D1" stroke-width="1.06479107" cx="61.1596209" cy="12.2450973" r="3.19437322"></circle>
                    <g filter="url(#filter-19)" id="编组-12">
                        <g transform="translate(141.551347, -0.000000)">
                            <rect id="矩形" fill="#D8D8D8" x="0" y="4.25916429" width="8.51832857" height="1.06479107" rx="0.532395536"></rect>
                            <rect id="矩形" fill="#D8D8D8" transform="translate(4.259164, 4.791560) rotate(-270.000000) translate(-4.259164, -4.791560) " x="0" y="4.25916429" width="8.51832857" height="1.06479107" rx="0.532395536"></rect>
                        </g>
                    </g>
                    <g filter="url(#filter-20)" id="编组-12备份">
                        <g transform="translate(7.410579, 58.348799) rotate(-315.000000) translate(-7.410579, -58.348799) translate(2.910579, 53.348799)">
                            <rect id="矩形" fill="#D8D8D8" x="0" y="4.25916429" width="8.51832857" height="1.06479107" rx="0.532395536"></rect>
                            <rect id="矩形" fill="#D8D8D8" transform="translate(4.259164, 4.791560) rotate(-270.000000) translate(-4.259164, -4.791560) " x="0" y="4.25916429" width="8.51832857" height="1.06479107" rx="0.532395536"></rect>
                        </g>
                    </g>
                </g>
            </g>
        </g>
    </g>
</svg>