<?xml version="1.0" encoding="UTF-8"?>
<svg width="130px" height="31px" viewBox="0 0 130 31" version="1.1" xmlns="http://www.w3.org/2000/svg" xmlns:xlink="http://www.w3.org/1999/xlink">
    <title>切片</title>
    <defs>
        <polygon id="path-1" points="0.262579167 0 12.5719958 0 12.5719958 24.5170215 0.262579167 24.5170215"></polygon>
    </defs>
    <g id="页面-1" stroke="none" stroke-width="1" fill="none" fill-rule="evenodd">
        <g id="首页-中" transform="translate(-1015.000000, -1383.000000)">
            <g id="合作伙伴" transform="translate(845.000000, 1341.000000)">
                <g id="logo" transform="translate(0.000000, 42.000000)">
                    <g id="logo4" transform="translate(170.000000, 0.000000)">
                        <g id="编组" transform="translate(13.000000, 1.631579)">
                            <path d="M38.4408958,16.6883333 C38.4408958,15.7296343 37.7509792,15.0162996 36.7975625,15.0162996 L33.5718125,15.0162996 L33.5718125,18.3817031 L36.7975625,18.3817031 C37.7509792,18.3817031 38.4408958,17.6676572 38.4408958,16.6883333 L38.4408958,16.6883333 Z M33.5718125,9.36651822 L33.5718125,12.5071822 L36.3718542,12.5071822 C37.2445208,12.5071822 37.8933542,11.834386 37.8933542,10.9368502 C37.8933542,10.0393144 37.2643542,9.36651822 36.3718542,9.36651822 L33.5718125,9.36651822 Z M41.2203958,16.8725344 C41.2203958,19.3197773 39.2526458,21.0124359 36.7982708,21.0124359 L31.0288958,21.0124359 C30.8872292,21.0124359 30.7724792,20.8972213 30.7724792,20.7549811 L30.7724792,6.99324022 C30.7724792,6.8502888 30.8872292,6.73507422 31.0288958,6.73507422 L36.3718542,6.73507422 C38.7653125,6.73507422 40.6926875,8.3665695 40.6926875,10.7533603 C40.6926875,11.9773374 40.1855208,12.9360364 39.3539375,13.6088327 C40.4901042,14.2617152 41.2203958,15.3832794 41.2203958,16.8725344 L41.2203958,16.8725344 Z" id="Fill-1" fill="#464D66"></path>
                            <path d="M43.5856625,10.814737 L45.6894125,10.814737 C45.8310792,10.814737 45.9458292,10.9306628 45.9458292,11.072903 L45.9458292,20.7559057 C45.9458292,20.8981459 45.8310792,21.0133605 45.6894125,21.0133605 L43.5856625,21.0133605 C43.4439958,21.0133605 43.3292458,20.8981459 43.3292458,20.7559057 L43.3292458,11.0721918 C43.3292458,10.9306628 43.4439958,10.814737 43.5856625,10.814737 M43.0253708,7.97988947 C43.0253708,7.10297854 43.7549542,6.3483942 44.6269125,6.3483942 C45.5194125,6.3483942 46.2489958,7.10297854 46.2489958,7.97988947 C46.2489958,8.8568004 45.5194125,9.59075992 44.6269125,9.59075992 C43.7549542,9.59075992 43.0253708,8.8568004 43.0253708,7.97988947" id="Fill-3" fill="#464D66"></path>
                            <path d="M52.3274167,13.3438391 L52.3274167,17.5854424 C52.3274167,18.6195287 53.0237083,18.7013169 54.3504167,18.6401536 C54.4970417,18.6330416 54.6195833,18.7503897 54.6195833,18.8976084 L54.6195833,20.7808688 C54.6195833,20.9131522 54.5182917,21.0240996 54.3865417,21.0369012 C50.8951667,21.3740105 49.710125,20.2801833 49.710125,17.5854424 L49.710125,13.3438391 L48.2020833,13.3438391 C48.0604167,13.3438391 47.9449583,13.2279134 47.9449583,13.0856731 L47.9449583,11.0722629 C47.9449583,10.9300227 48.0604167,10.8140969 48.2020833,10.8140969 L49.710125,10.8140969 L49.710125,9.08516707 C49.710125,8.62928718 50.007625,8.22745857 50.4425417,8.09730877 L51.9973333,7.63004966 C52.1616667,7.58026559 52.3274167,7.70472578 52.3274167,7.87683644 L52.3274167,10.8140969 L54.3631667,10.8140969 C54.5048333,10.8140969 54.6195833,10.9300227 54.6195833,11.0722629 L54.6195833,13.0856731 C54.6195833,13.2279134 54.5048333,13.3438391 54.3631667,13.3438391 L52.3274167,13.3438391 Z" id="Fill-5" fill="#464D66"></path>
                            <path d="M63.8067375,20.1297642 L59.4278208,14.5482582 L59.4278208,20.75491 C59.4278208,20.8971502 59.3130708,21.0123648 59.1714042,21.0123648 L56.8849042,21.0123648 C56.7432375,21.0123648 56.6284875,20.8971502 56.6284875,20.75491 L56.6284875,6.9931691 C56.6284875,6.85092888 56.7432375,6.7357143 56.8849042,6.7357143 L59.1714042,6.7357143 C59.3130708,6.7357143 59.4278208,6.85092888 59.4278208,6.9931691 L59.4278208,13.263829 L63.8067375,7.62756046 C64.2444875,7.0642892 64.9152792,6.7357143 65.6257375,6.7357143 L67.2060292,6.7357143 C67.4185292,6.7357143 67.5389458,6.98036748 67.4093208,7.15034453 L62.2689458,13.8953756 L67.4071958,20.5970233 C67.5375292,20.7670004 67.4171125,21.0123648 67.2039042,21.0123648 L65.6193625,21.0123648 C64.9124458,21.0123648 64.2444875,20.6873459 63.8067375,20.1297642" id="Fill-7" fill="#464D66"></path>
                            <path d="M75.773675,14.9551363 C75.4492583,13.4865061 74.3534667,12.8947868 73.2583833,12.8947868 C71.859425,12.8947868 70.9045917,13.6500823 70.6007167,14.9551363 L75.773675,14.9551363 Z M73.50205,18.9115479 C74.4235917,18.9115479 75.1758417,18.5587922 75.6412167,18.0509946 C75.7240917,17.9613833 75.8551333,17.939336 75.9613833,18.0004993 L77.6358833,18.972 C77.7697583,19.0495209 77.8065917,19.2294548 77.7109667,19.3517814 C76.7518833,20.5928273 75.2948417,21.2976275 73.4609667,21.2976275 C70.0538833,21.2976275 67.9033833,18.9527976 67.9033833,15.9138354 C67.9033833,12.8748731 70.0737167,10.5286208 73.2583833,10.5286208 C76.2610083,10.5286208 78.3909667,12.9147004 78.3909667,15.9138354 C78.3909667,16.3014399 78.3505917,16.6477949 78.2903833,16.994861 L70.6418,16.994861 C71.0073,18.3404534 72.122925,18.9115479 73.50205,18.9115479 L73.50205,18.9115479 Z" id="Fill-9" fill="#464D66"></path>
                            <path d="M87.9135875,14.9551363 C87.5891708,13.4865061 86.4933792,12.8947868 85.3975875,12.8947868 C83.9986292,12.8947868 83.0452125,13.6500823 82.7399208,14.9551363 L87.9135875,14.9551363 Z M85.6419625,18.9115479 C86.5627958,18.9115479 87.3157542,18.5587922 87.7811292,18.0509946 C87.8632958,17.9613833 87.9943375,17.939336 88.1005875,18.0004993 L89.7757958,18.972 C89.9096708,19.0495209 89.9465042,19.2294548 89.8501708,19.3517814 C88.8910875,20.5928273 87.4354625,21.2976275 85.6008792,21.2976275 C82.1930875,21.2976275 80.0425875,18.9527976 80.0425875,15.9138354 C80.0425875,12.8748731 82.2129208,10.5286208 85.3975875,10.5286208 C88.4002125,10.5286208 90.5294625,12.9147004 90.5294625,15.9138354 C90.5294625,16.3014399 90.4897958,16.6477949 90.4288792,16.994861 L82.7810042,16.994861 C83.1465042,18.3404534 84.2621292,18.9115479 85.6419625,18.9115479 L85.6419625,18.9115479 Z" id="Fill-11" fill="#464D66"></path>
                            <path d="M100.799871,15.9139776 C100.799871,14.2006942 99.6034958,13.0378804 97.9807042,13.0378804 C96.3770375,13.0378804 95.1806625,14.2006942 95.1806625,15.9139776 C95.1806625,17.6265498 96.3770375,18.7893636 97.9807042,18.7893636 C99.6034958,18.7893636 100.799871,17.6265498 100.799871,15.9139776 M103.416454,15.9139776 C103.416454,18.9522286 101.185204,21.2977698 98.4666208,21.2977698 C96.9854958,21.2977698 95.9116625,20.7480113 95.1806625,19.8092259 L95.1806625,24.8338615 C95.1806625,24.9761018 95.0652042,25.0920275 94.9235375,25.0920275 L92.8197875,25.0920275 C92.6781208,25.0920275 92.5626625,24.9761018 92.5626625,24.8338615 L92.5626625,11.0714094 C92.5626625,10.9291692 92.6781208,10.8132435 92.8197875,10.8132435 L94.9235375,10.8132435 C95.0652042,10.8132435 95.1806625,10.9291692 95.1806625,11.0714094 L95.1806625,12.0180181 C95.9116625,11.0799439 96.9854958,10.528763 98.4666208,10.528763 C101.185204,10.528763 103.416454,12.8750154 103.416454,15.9139776" id="Fill-13" fill="#464D66"></path>
                            <path d="M16.02675,25.5686745 L4.743,19.0149565 C4.34704167,18.7852386 4.10266667,18.3592291 4.10266667,17.8990821 L4.10266667,4.77742213 C4.10266667,4.57828583 3.88875,4.45453684 3.71804167,4.55410499 L1.408875,5.89614143 C0.536916667,6.4025166 0,7.33845722 0,8.35120756 L0,19.3869147 C0,20.3982426 0.536916667,21.3348945 1.408875,21.8419808 L10.8962917,27.3559228 C11.7696667,27.8637204 12.8463333,27.8637204 13.719,27.3559228 L16.02675,26.0145976 C16.1974583,25.9157406 16.1974583,25.6682426 16.02675,25.5686745" id="Fill-15" fill="#495BFF"></path>
                            <path d="M9.61335833,12.751053 C9.61335833,12.475107 9.75998333,12.2197858 9.997275,12.0818128 L11.9204,10.9638047 C12.1591083,10.8251205 12.4523583,10.8251205 12.6903583,10.9638047 L14.6141917,12.0818128 C14.8521917,12.2197858 14.9981083,12.475107 14.9981083,12.751053 L14.9981083,14.9884916 C14.9981083,15.2644377 14.8514833,15.5197588 14.6141917,15.6577318 L12.6903583,16.7757399 C12.4523583,16.9144242 12.1591083,16.9144242 11.9204,16.7757399 L9.997275,15.6577318 C9.75998333,15.5197588 9.61335833,15.2644377 9.61335833,14.9884916 L9.61335833,12.751053 Z M6.792775,17.8190719 L11.6639833,20.6503634 C12.06065,20.8815038 12.5501083,20.8815038 12.9474833,20.6503634 L17.8194,17.8183607 C18.2153583,17.5886428 18.4597333,17.1626333 18.4597333,16.7024862 L18.4597333,11.0363472 C18.4597333,10.5762001 18.2153583,10.1509019 17.8194,9.92047274 L12.9474833,7.08847004 C12.5501083,6.85732969 12.0613583,6.85732969 11.6639833,7.08847004 L10.4548583,7.79042551 C10.36915,7.84020958 10.2629,7.77833509 10.2629,7.67947814 L10.2706917,1.2018587 C10.2706917,1.0027224 10.056775,0.878973414 9.88606667,0.978541565 L6.80056667,2.77147949 C6.40460833,3.00190864 6.16023333,3.42649568 6.16023333,3.88664278 L6.15173333,16.7024862 C6.15173333,17.1626333 6.39610833,17.5886428 6.792775,17.8190719 L6.792775,17.8190719 Z" id="Fill-17" fill="#495BFF"></path>
                            <g transform="translate(12.041667, 0.000142)">
                                <mask id="mask-2" fill="white">
                                    <use xlink:href="#path-1"></use>
                                </mask>
                                <g id="Clip-20"></g>
                                <path d="M11.1638292,5.89244318 L1.6764125,0.377790013 C1.2790375,0.146649663 0.8391625,0.0207670715 0.396454167,-1.04216242e-05 C0.323495833,-0.00341376518 0.262579167,0.0556159244 0.262579167,0.128869636 L0.262579167,4.17347018 C0.262579167,4.26592632 0.311454167,4.35127045 0.3907875,4.39678731 L7.82970417,8.71875628 C8.22637083,8.94918543 8.4700375,9.37448367 8.4700375,9.83463077 L8.4700375,17.8953838 C8.4700375,18.3555309 8.22637083,18.7808291 7.82970417,19.0112583 L2.70137083,21.9926132 C2.5306625,22.0914702 2.5306625,22.3396794 2.70137083,22.4392475 L6.16157917,24.4476794 C6.32024583,24.5401355 6.51574583,24.5401355 6.6744125,24.4476794 L11.1638292,21.8382826 C12.0350792,21.3311962 12.5719958,20.3959668 12.5719958,19.3832165 L12.5719958,8.34750931 C12.5719958,7.33475897 12.0350792,6.39881835 11.1638292,5.89244318" id="Fill-19" fill="#495BFF" mask="url(#mask-2)"></path>
                            </g>
                        </g>
                    </g>
                </g>
            </g>
        </g>
    </g>
</svg>