<?xml version="1.0" encoding="UTF-8"?>
<svg width="129px" height="30px" viewBox="0 0 129 30" version="1.1" xmlns="http://www.w3.org/2000/svg" xmlns:xlink="http://www.w3.org/1999/xlink">
    <title>logo4</title>
    <defs>
        <rect id="path-1" x="0" y="0" width="128.375" height="29.5383772"></rect>
        <path d="M6.53254313,16.899771 C8.19712782,16.899771 9.64928643,16.4434786 10.889019,15.5308938 C12.1287515,14.618309 13.0585509,13.2983827 13.6784172,11.5711149 L13.6784172,11.5711149 L10.5024731,11.0885988 C10.1681632,12.1305539 9.66147481,12.9172649 8.98240784,13.4487319 C8.30334086,13.9801989 7.55636719,14.2459325 6.74148682,14.2459325 C5.86392334,14.2459325 5.13087925,13.9102691 4.54235453,13.2389423 C3.95382982,12.5676156 3.65956746,11.6165693 3.65956746,10.3858036 C3.65956746,9.2599327 3.88592312,8.13231355 4.33863444,7.00294614 C4.79134576,5.87357874 5.39554125,5.04316153 6.15122091,4.51169451 C6.90690057,3.9802275 7.72003974,3.71449399 8.59063843,3.71449399 C9.38462443,3.71449399 10.0201615,3.91554237 10.4972496,4.31763912 C10.9743376,4.71973588 11.2964591,5.36833542 11.4636141,6.26343776 L11.4636141,6.26343776 L14.4828503,5.96973231 C14.3017658,4.43127516 13.6993115,3.21624367 12.6754875,2.32463782 C11.6516634,1.43303198 10.3109414,0.987229053 8.65332153,0.987229053 C7.17678616,0.987229053 5.81168742,1.37184334 4.55802531,2.14107191 C3.3043632,2.91030049 2.32406908,4.02043718 1.61714294,5.47148198 C0.91021681,6.92252679 0.556753743,8.52217257 0.556753743,10.2704193 C0.556753743,12.4242593 1.08433655,14.0676113 2.13950216,15.2004752 C3.19466777,16.3333391 4.65901476,16.899771 6.53254313,16.899771 Z M20.4586397,16.8892815 C22.3878864,16.8892815 23.9271049,16.2319408 25.0762952,14.9172592 C26.2254854,13.6025776 26.8000806,12.0431415 26.8000806,10.2389509 C26.8000806,8.70748673 26.3404045,7.48895874 25.4210522,6.58336692 C24.5017,5.6777751 23.2236612,5.22497919 21.5869356,5.22497919 C19.6994777,5.22497919 18.17593,5.8386138 17.0162925,7.06588302 C15.8566551,8.29315225 15.2768363,9.93825245 15.2768363,12.0011836 C15.2768363,12.8823 15.4753328,13.7074725 15.8723258,14.476701 C16.2693188,15.2459296 16.8717731,15.8403335 17.6796887,16.2599127 C18.4876043,16.6794919 19.4139213,16.8892815 20.4586397,16.8892815 Z M20.5631116,14.5606169 C19.9084214,14.5606169 19.3651678,14.3263518 18.9333508,13.8578217 C18.5015339,13.3892915 18.2856254,12.7564262 18.2856254,11.9592257 C18.2856254,11.3158709 18.4249212,10.6113274 18.7035128,9.84559537 C18.9821044,9.07986329 19.3721326,8.49594887 19.8735974,8.09385212 C20.3750623,7.69175536 20.9496574,7.49070699 21.5973828,7.49070699 C22.252073,7.49070699 22.7866206,7.70574134 23.2010256,8.13581004 C23.6154306,8.56587874 23.8226331,9.13755543 23.8226331,9.85084011 C23.8226331,11.2844024 23.4256401,12.5011822 22.6316541,13.5011793 C22.0744709,14.207471 21.3849567,14.5606169 20.5631116,14.5606169 Z M33.5385144,3.97673101 L34.1026624,1.24946607 L31.1043205,1.24946607 L30.5401725,3.97673101 L33.5385144,3.97673101 Z M30.905824,16.6270445 L33.2250989,5.4872162 L30.226757,5.4872162 L27.9074821,16.6270445 L30.905824,16.6270445 Z M36.8920605,16.6270445 L37.8427543,12.053631 C38.1213459,10.7179705 38.3720783,9.83335764 38.5949516,9.39979244 C38.9014023,8.79140257 39.3227721,8.30189348 39.8590609,7.93126517 C40.3953497,7.56063686 40.8828849,7.3753227 41.3216667,7.3753227 C41.7256245,7.3753227 42.0407812,7.48546225 42.2671368,7.70574134 C42.4934925,7.92602043 42.6066703,8.22846712 42.6066703,8.6130814 C42.6066703,8.79489907 42.5091633,9.35783452 42.3141492,10.3018878 L42.3141492,10.3018878 L40.997804,16.6270445 L43.9961458,16.6270445 L45.3020439,10.3228667 C45.5318819,9.23196076 45.6468009,8.49070413 45.6468009,8.09909686 C45.6468009,7.23196647 45.3838801,6.53616426 44.8580385,6.01169023 C44.3321969,5.4872162 43.6130824,5.22497919 42.700695,5.22497919 C42.0181456,5.22497919 41.368679,5.3560977 40.7522951,5.61833471 C40.1359113,5.88057172 39.4725151,6.31938166 38.7621065,6.93476452 L38.7621065,6.93476452 L39.0546277,5.4872162 L36.2129936,5.4872162 L33.8937187,16.6270445 L36.8920605,16.6270445 Z M54.0672314,16.899771 C55.7318161,16.899771 57.1839747,16.4434786 58.4237073,15.5308938 C59.6634398,14.618309 60.5932392,13.2983827 61.2131055,11.5711149 L61.2131055,11.5711149 L58.0371615,11.0885988 C57.7028516,12.1305539 57.1961631,12.9172649 56.5170962,13.4487319 C55.8380292,13.9801989 55.0910555,14.2459325 54.2761751,14.2459325 C53.3986117,14.2459325 52.6655676,13.9102691 52.0770428,13.2389423 C51.4885181,12.5676156 51.1942558,11.6165693 51.1942558,10.3858036 C51.1942558,9.2599327 51.4206114,8.13231355 51.8733228,7.00294614 C52.3260341,5.87357874 52.9302296,5.04316153 53.6859092,4.51169451 C54.4415889,3.9802275 55.2547281,3.71449399 56.1253267,3.71449399 C56.9193127,3.71449399 57.5548498,3.91554237 58.0319379,4.31763912 C58.5090259,4.71973588 58.8311475,5.36833542 58.9983024,6.26343776 L58.9983024,6.26343776 L62.0175387,5.96973231 C61.8364541,4.43127516 61.2339998,3.21624367 60.2101758,2.32463782 C59.1863517,1.43303198 57.8456297,0.987229053 56.1880098,0.987229053 C54.7114745,0.987229053 53.3463757,1.37184334 52.0927136,2.14107191 C50.8390515,2.91030049 49.8587574,4.02043718 49.1518313,5.47148198 C48.4449051,6.92252679 48.0914421,8.52217257 48.0914421,10.2704193 C48.0914421,12.4242593 48.6190249,14.0676113 49.6741905,15.2004752 C50.7293561,16.3333391 52.1937031,16.899771 54.0672314,16.899771 Z M65.6531588,16.8892815 C66.2312363,16.8892815 66.8058314,16.758163 67.3769442,16.495926 C67.9480569,16.233689 68.4530042,15.857816 68.8917859,15.3683069 C68.919645,15.8018721 68.9927753,16.2214513 69.1111768,16.6270445 L69.1111768,16.6270445 L72.0259412,16.6270445 C71.8587862,16.0466266 71.7752087,15.5186561 71.7752087,15.043133 C71.7752087,14.511666 71.9214693,13.5815987 72.2139905,12.2529312 C72.5691947,10.6445441 72.7763972,9.65153998 72.8355979,9.27391868 C72.8947987,8.89629738 72.924399,8.53965504 72.924399,8.20399166 C72.924399,7.37182621 72.5831243,6.66728276 71.900575,6.09036133 C71.2180256,5.51343991 70.16286,5.22497919 68.7350781,5.22497919 C67.3630146,5.22497919 66.2608367,5.50469867 65.4285443,6.06413763 C64.596252,6.6235766 64.0129508,7.39979816 63.678641,8.39280231 L63.678641,8.39280231 L66.6038525,8.64454985 C66.7152892,8.2389566 66.9259741,7.92602043 67.2359072,7.70574134 C67.5458403,7.48546225 67.9689513,7.3753227 68.5052401,7.3753227 C69.0136697,7.3753227 69.3967331,7.483714 69.6544303,7.7004966 C69.9121275,7.91727919 70.0409762,8.1865092 70.0409762,8.5081866 C70.0409762,8.75993413 69.9782931,9.09559751 69.8529268,9.51517673 C69.3723564,9.68300842 68.4181802,9.82636465 66.9903984,9.94524543 C65.2979545,10.0781122 64.1226463,10.4627265 63.4644737,11.0990883 C62.8063011,11.7354501 62.4772148,12.585098 62.4772148,13.6480321 C62.4772148,14.5990783 62.7767007,15.3770481 63.3756726,15.9819415 C63.9746445,16.5868349 64.7338066,16.8892815 65.6531588,16.8892815 Z M66.6665356,14.6340432 C66.2556131,14.6340432 65.9247856,14.5134142 65.6740531,14.2721562 C65.4233207,14.0308981 65.2979545,13.7354444 65.2979545,13.385795 C65.2979545,12.9592228 65.4616271,12.620063 65.7889722,12.3683154 C66.2486483,12.0186661 67.2306836,11.7529326 68.7350781,11.5711149 C69.0345641,11.529157 69.2748493,11.4837026 69.4559338,11.4347517 L69.4559338,11.4347517 L69.3723564,11.8333519 C69.219131,12.5676156 69.0432701,13.1078238 68.8447736,13.4539767 C68.6462771,13.8001295 68.3467911,14.0833455 67.9463157,14.3036246 C67.5458403,14.5239037 67.119247,14.6340432 66.6665356,14.6340432 Z M77.1032727,16.6270445 L77.8345756,13.1340475 C78.1270968,11.7144711 78.4231003,10.6777608 78.7225863,10.0239165 C79.0220722,9.37007225 79.4382184,8.84734647 79.9710248,8.4557392 C80.5038312,8.06413192 81.0279316,7.86832829 81.543326,7.86832829 C81.8497767,7.86832829 82.1388155,7.91727919 82.4104423,8.01518101 L82.4104423,8.01518101 L83.5596326,5.55015309 C83.0651325,5.33337049 82.601974,5.22497919 82.1701571,5.22497919 C80.9513189,5.22497919 79.8195406,6.03266919 78.7748222,7.64804919 L78.7748222,7.64804919 L79.2240511,5.4872162 L76.4242057,5.4872162 L74.1049308,16.6270445 L77.1032727,16.6270445 Z M84.6252454,20.8752842 L85.8266715,15.0955804 C86.5788688,16.2913812 87.6897527,16.8892815 89.1593233,16.8892815 C90.5871052,16.8892815 91.8233553,16.2983741 92.8680737,15.1165593 C94.0869119,13.7319479 94.696331,12.0361486 94.696331,10.0291613 C94.696331,8.43476023 94.3428679,7.23546296 93.6359418,6.43126945 C92.9290156,5.62707594 91.9939926,5.22497919 90.8308728,5.22497919 C90.2249361,5.22497919 89.6573058,5.33337049 89.1279818,5.55015309 C88.5986578,5.76693568 88.0310274,6.12707452 87.4250907,6.63056958 L87.4250907,6.63056958 L87.665376,5.4872162 L84.8237419,5.4872162 L81.6269035,20.8752842 L84.6252454,20.8752842 Z M88.7518831,14.6130643 C88.1807704,14.6130643 87.6845291,14.3735545 87.2631594,13.8945349 C86.8417896,13.4155152 86.6311047,12.7424402 86.6311047,11.8753099 C86.6311047,11.280906 86.7599533,10.586852 87.0176506,9.79314796 C87.2753478,8.99944394 87.639258,8.39804705 88.1093813,7.98895731 C88.5795046,7.57986757 89.1001226,7.3753227 89.6712354,7.3753227 C90.2841368,7.3753227 90.7890841,7.59735004 91.1860771,8.04140471 C91.5830701,8.48545939 91.7815666,9.12356946 91.7815666,9.95573491 C91.7815666,10.6690196 91.6300824,11.4434929 91.3271141,12.2791549 C91.0241457,13.1148168 90.6428235,13.7127172 90.1831474,14.072856 C89.7234713,14.4329949 89.2463832,14.6130643 88.7518831,14.6130643 Z" id="path-3"></path>
    </defs>
    <g id="页面-1" stroke="none" stroke-width="1" fill="none" fill-rule="evenodd">
        <g id="首页" transform="translate(-1185.000000, -1156.000000)">
            <g id="合作伙伴" transform="translate(845.000000, 1114.000000)">
                <g id="logo" transform="translate(0.000000, 42.000000)">
                    <g id="自定义大小-–-1" transform="translate(340.000000, 0.000000)">
                        <mask id="mask-2" fill="white">
                            <use xlink:href="#path-1"></use>
                        </mask>
                        <g id="矩形"></g>
                        <g id="自定义大小_1" mask="url(#mask-2)" fill-rule="nonzero">
                            <g id="组_1">
                                <path d="M9.64952083,0 L19.76975,0 C25.0990332,0 29.4192708,4.33772847 29.4192708,9.68858772 L29.4192708,19.8497895 C29.4192708,25.2006487 25.0990332,29.5383772 19.76975,29.5383772 L9.64952083,29.5383772 C4.32023763,29.5383772 0,25.2006487 0,19.8497895 L0,9.68858772 C0,4.33772847 4.32023763,0 9.64952083,0 Z" id="路径_1" fill="#3B87EB"></path>
                                <path d="M10.2637595,21.0062617 L10.2637595,21.0062617 L6.46332465,17.1904404 L6.45619271,17.1976012 L3.86640538,14.5973289 L9.32145139,9.11930263 L11.9112387,11.72047 L9.05846094,14.5901681 L12.8571128,18.4104649 L15.7990399,15.4566272 L18.3923932,18.052424 L15.4442257,21.0062617 C14.7573689,21.6962343 13.8255908,22.0838851 12.8539926,22.0838851 C11.8823944,22.0838851 10.9506164,21.6962343 10.2637595,21.0062617 Z M20.3706163,18.6494572 L10.1460825,8.38531871 C11.5766292,6.94898204 13.8960019,6.94898204 15.3265486,8.38531871 L19.0841918,12.1608604 L20.4874019,10.7519693 C21.9179486,9.31563262 24.2373213,9.31563262 25.6678681,10.7519693 L21.6739792,14.7620278 L25.5510825,18.6539327 C24.1203319,20.0897753 21.8013669,20.0897753 20.3706163,18.6539327 L20.3706163,18.6494572 Z" id="联合_4" fill="#FFFFFF"></path>
                                <g id="CoinCarp" transform="translate(33.563750, 6.532312)" fill="#000000">
                                    <use xlink:href="#path-3"></use>
                                    <use xlink:href="#path-3"></use>
                                </g>
                            </g>
                        </g>
                    </g>
                </g>
            </g>
        </g>
    </g>
</svg>