<?xml version="1.0" encoding="UTF-8"?>
<svg width="102px" height="25px" viewBox="0 0 102 25" version="1.1" xmlns="http://www.w3.org/2000/svg" xmlns:xlink="http://www.w3.org/1999/xlink">
    <title>logo</title>
    <defs>
        <polygon id="path-1" points="0 23.9483309 101.113873 23.9483309 101.113873 0 0 0"></polygon>
    </defs>
    <g id="页面-1" stroke="none" stroke-width="1" fill="none" fill-rule="evenodd">
        <g id="首页-中" transform="translate(-76.000000, -31.000000)">
            <g id="编组" transform="translate(76.000000, 24.000000)">
                <g id="编组" transform="translate(0.000000, 7.777778)">
                    <path d="M41.3358861,19.0578895 C40.934895,18.9895054 40.7394724,18.8619746 40.749154,18.6757625 C40.7785967,18.4698791 40.934895,18.362219 41.2184468,18.3522505 C41.4824365,18.3522505 41.6438408,18.4797812 41.7026599,18.7345768 L42.0251371,18.6462556 C41.9371406,18.2739643 41.6632704,18.0829008 41.2039244,18.0730651 C40.7246184,18.0928028 40.4655358,18.293569 40.4264115,18.6757625 C40.4067167,19.0382847 40.6806533,19.2539372 41.2478895,19.3223878 C41.6192389,19.3911042 41.8000728,19.5233534 41.7905902,19.7193347 C41.7806433,19.9544591 41.5998094,20.0771385 41.2478895,20.0867083 C40.9251471,20.0967433 40.7246184,19.9349872 40.646635,19.601839 L40.338415,19.6899608 C40.4558542,20.1211994 40.7589019,20.3316683 41.2478895,20.322032 C41.8149268,20.3121964 42.1033857,20.1065789 42.1131337,19.7045813 C42.1228816,19.3617303 41.863998,19.1460778 41.3358861,19.0578895" id="Fill-1" fill="#323232"></path>
                    <path d="M46.4582933,18.0730386 C46.1651925,18.0828742 45.9352874,18.2103385 45.7690422,18.4551656 L45.7690422,17.3381585 L45.4465651,17.3381585 L45.4465651,20.2779446 L45.7690422,20.2779446 L45.7690422,18.9549877 C45.7984186,18.5925319 46.0037881,18.3867814 46.3851507,18.3376034 C46.7076279,18.3376034 46.8690323,18.5386354 46.8690323,18.9402342 L46.8690323,20.2631911 L47.191841,20.2631911 L47.191841,18.8961733 C47.2012574,18.3376034 46.9570288,18.0633359 46.4582933,18.0730386" id="Fill-3" fill="#323232"></path>
                    <path d="M50.7818417,19.043156 C50.8112844,18.6316551 51.0264018,18.4063663 51.4273929,18.3670238 C51.8281187,18.3867615 52.0383953,18.6120503 52.0580901,19.043156 L50.7818417,19.043156 Z M51.4273929,18.087772 C50.7915233,18.1170795 50.4593645,18.4992065 50.4299218,19.2342195 C50.4493514,19.9301558 50.7866825,20.2926116 51.4419816,20.322052 C51.9501335,20.3316882 52.2634596,20.1212193 52.3805673,19.6899142 L52.0580901,19.6017924 C51.9700936,19.9155353 51.759618,20.0721077 51.4273929,20.0721077 C51.0067071,20.0426673 50.7866825,19.7880046 50.767253,19.3077873 L52.3954213,19.3077873 L52.3954213,19.2342195 C52.3757265,18.4896367 52.0529841,18.1075097 51.4273929,18.087772 L51.4273929,18.087772 Z" id="Fill-5" fill="#323232"></path>
                    <path d="M55.8753964,19.043156 C55.9047728,18.6316551 56.119625,18.4063663 56.5206161,18.3670238 C56.9214082,18.3867615 57.1316185,18.6120503 57.1513133,19.043156 L55.8753964,19.043156 Z M56.5206161,18.087772 C55.8850781,18.1170795 55.5525877,18.4992065 55.5234102,19.2342195 C55.5429061,19.9301558 55.8802373,20.2926116 56.5354701,20.322052 C57.0436883,20.3316882 57.3567491,20.1212193 57.4740557,19.6899142 L57.1513133,19.6017924 C57.0633831,19.9155353 56.8528412,20.0721077 56.5206161,20.0721077 C56.1001955,20.0426673 55.8802373,19.7880046 55.8608077,19.3077873 L57.4887108,19.3077873 L57.4887108,19.2342195 C57.4689497,18.4896367 57.1462072,18.1075097 56.5206161,18.087772 L56.5206161,18.087772 Z" id="Fill-7" fill="#323232"></path>
                    <path d="M61.5994428,20.0867349 C61.1984517,20.0770986 60.9930159,19.8272208 60.9833343,19.3371678 L60.9833343,18.9991017 C61.0127107,18.607272 61.2035578,18.3916195 61.5554777,18.3522106 C61.9856462,18.3721476 62.2056044,18.6660199 62.2153524,19.2342261 C62.2056044,19.7928626 62.0002349,20.0770986 61.5994428,20.0867349 M61.6140315,18.0877787 C61.3598561,18.0877787 61.1495795,18.2103916 60.9833343,18.4551523 L60.9833343,18.1318396 L60.6753796,18.1318396 L60.6753796,21.0128113 L60.9833343,21.0128113 L60.9833343,19.9544857 C61.1104552,20.1993793 61.3450021,20.3169415 61.6874394,20.3072387 C62.2350471,20.2875675 62.5134929,19.9301625 62.5235061,19.2342261 C62.4940634,18.4992132 62.1910157,18.1170862 61.6140315,18.0877787" id="Fill-9" fill="#323232"></path>
                    <path d="M67.2941459,19.3371479 C67.2844643,19.8272008 67.0838693,20.0771451 66.6928914,20.0867149 C66.2918341,20.0672431 66.0864646,19.7831399 66.0769819,19.2342062 C66.0864646,18.6560979 66.3063565,18.3622256 66.7368566,18.3522571 C67.0790285,18.3817639 67.2650348,18.5974165 67.2941459,18.9990818 L67.2941459,19.3371479 Z M67.2941459,18.4551988 C67.1376487,18.2200079 66.9322129,18.0976608 66.6783027,18.0877588 C66.1013185,18.1171327 65.7982046,18.4992597 65.7688282,19.2342062 C65.7882577,19.9202405 66.0669687,20.2779113 66.6048286,20.3072853 C66.9567485,20.3169215 67.1864546,20.1994258 67.2941459,19.9544658 L67.2941459,20.2632244 L67.6168884,20.2632244 L67.6168884,17.3381917 L67.2941459,17.3381917 L67.2941459,18.4551988 Z" id="Fill-11" fill="#323232"></path>
                    <path d="M71.1554174,19.043156 C71.1847938,18.6316551 71.3999112,18.4063663 71.8009023,18.3670238 C72.2016944,18.3867615 72.4119047,18.6120503 72.4315995,19.043156 L71.1554174,19.043156 Z M71.8009023,18.087772 C71.165099,18.1170795 70.8328739,18.4992065 70.8034312,19.2342195 C70.822927,19.9301558 71.1602582,20.2926116 71.815491,20.322052 C72.3237092,20.3316882 72.6370353,20.1212193 72.754143,19.6899142 L72.4315995,19.6017924 C72.3436692,19.9155353 72.1331274,20.0721077 71.8009023,20.0721077 C71.3802164,20.0426673 71.1602582,19.7880046 71.1408287,19.3077873 L72.768997,19.3077873 L72.768997,19.2342195 C72.7492359,18.4896367 72.4264934,18.1075097 71.8009023,18.087772 L71.8009023,18.087772 Z" id="Fill-13" fill="#323232"></path>
                    <path d="M77.8330891,18.1318396 L77.4517265,18.1318396 C77.1678431,18.582683 77.0115448,18.8277759 76.9824336,18.8668526 C76.9530573,18.9256004 76.9236146,18.9747785 76.8941718,19.0137887 C76.8844239,18.9747785 76.8550475,18.9256004 76.8062416,18.8668526 L76.3369488,18.1318396 L75.9703738,18.1318396 L76.7330327,19.1901652 L75.882112,20.2631778 L76.2634746,20.2631778 L76.8062416,19.5282313 C76.8159232,19.5185951 76.835618,19.4891547 76.8649944,19.4401095 C76.8744771,19.4107356 76.8844239,19.3910644 76.8941718,19.3812287 C76.9039198,19.4009664 76.9284554,19.4401095 76.9675797,19.4988574 C76.9773276,19.5087595 76.9824336,19.5185951 76.9824336,19.5282313 L77.4957579,20.2631778 L77.8770542,20.2631778 L77.0704302,19.2048522 L77.8330891,18.1318396 Z" id="Fill-15" fill="#323232"></path>
                    <mask id="mask-2" fill="white">
                        <use xlink:href="#path-1"></use>
                    </mask>
                    <g id="Clip-18"></g>
                    <polygon id="Fill-17" fill="#323232" mask="url(#mask-2)" points="81.7456797 20.263231 82.2003838 20.263231 82.2003838 19.8369767 81.7456797 19.8369767"></polygon>
                    <path d="M87.0809497,20.0867349 C86.6310864,20.067263 86.4013803,19.7831599 86.3916987,19.2342261 C86.4013803,18.6462158 86.6310864,18.3474921 87.0809497,18.3376565 C87.4820071,18.3768661 87.6970582,18.6708713 87.7264346,19.2194727 C87.7165541,19.7781092 87.5014366,20.067263 87.0809497,20.0867349 M87.0958037,18.0877787 C86.4305577,18.1075164 86.0885847,18.4944947 86.0688899,19.2489796 C86.0983989,19.9251118 86.4305577,20.2826497 87.066361,20.3220586 C87.7213286,20.312223 88.0538852,19.9398652 88.0638321,19.2048522 C88.0344557,18.4896434 87.7116469,18.1170862 87.0958037,18.0877787" id="Fill-19" fill="#323232" mask="url(#mask-2)"></path>
                    <path d="M91.8958531,18.5139666 L91.8809992,18.5139666 L91.8809992,18.1318396 L91.5730444,18.1318396 L91.5730444,20.2779313 L91.8809992,20.2779313 L91.8809992,19.1167304 C91.8809992,18.8814066 91.9249643,18.7102137 92.0129608,18.6021549 C92.1206522,18.4650543 92.2331843,18.3964709 92.3503583,18.3964709 C92.4385538,18.3964709 92.5265503,18.4258448 92.6144806,18.4846591 L92.7464423,18.1906539 C92.6291356,18.1123677 92.5116964,18.0781424 92.3943234,18.0877787 C92.1597102,18.0976143 91.993266,18.2397656 91.8958531,18.5139666" id="Fill-20" fill="#323232" mask="url(#mask-2)"></path>
                    <path d="M97.8751691,19.2783535 C97.8652222,19.739099 97.6549456,19.9742234 97.2444719,19.9839261 C96.8434145,19.9544857 96.6332042,19.6850695 96.6137746,19.1754118 C96.6332042,18.636646 96.8580032,18.3573942 97.288437,18.3376565 C97.6597864,18.3769325 97.855209,18.582683 97.8751691,18.9549744 L97.8751691,19.2783535 Z M97.8751691,18.4405982 C97.7283534,18.215243 97.513236,18.0976143 97.2296842,18.0877787 C96.6429521,18.1170862 96.334931,18.4797413 96.3055546,19.1754118 C96.3253157,19.8320721 96.6086023,20.175056 97.1564753,20.20443 C97.5378379,20.2139998 97.7771593,20.1014883 97.8751691,19.8663639 L97.8751691,20.0867349 C97.8846517,20.5473474 97.6500385,20.7726362 97.171064,20.7629335 C96.9363181,20.7530314 96.7212007,20.6795966 96.5257781,20.5424296 L96.3935512,20.7041856 C96.5697432,20.9099361 96.8337329,21.0128113 97.1856528,21.0128113 C97.8994394,21.0422517 98.2367706,20.7041856 98.1976463,19.998613 L98.1976463,18.1318396 L97.8751691,18.1318396 L97.8751691,18.4405982 Z" id="Fill-21" fill="#323232" mask="url(#mask-2)"></path>
                    <path d="M83.514974,8.68889669 C83.514974,10.2413956 82.2592162,11.4998893 80.7100259,11.4998893 L79.7669973,11.4998893 L79.7669973,5.32657786 L80.7100259,5.32657786 C82.2592162,5.32657786 83.514974,6.58513805 83.514974,8.13757051 L83.514974,8.68889669 Z M81.291453,3.52719168 L77.5444047,3.52719168 L77.5444047,13.299342 L81.291453,13.299342 C83.7981943,13.299342 85.8302051,11.2627712 85.8302051,8.75063512 L85.8302051,8.07583207 C85.8302051,5.56369597 83.7981943,3.52719168 81.291453,3.52719168 L81.291453,3.52719168 Z" id="Fill-22" fill="#000000" mask="url(#mask-2)"></path>
                    <polygon id="Fill-23" fill="#000000" mask="url(#mask-2)" points="101.11386 6.10405677 98.8453128 6.10405677 97.1229146 8.27673119 95.4005164 6.10405677 93.1319693 6.10405677 95.988641 9.70761404 93.1319693 13.3111048 95.4005164 13.3111048 97.1229146 11.138364 98.8453128 13.3111048 101.11386 13.3111048 98.2571882 9.70761404"></polygon>
                    <path d="M50.5458293,6.12209981 C49.6754127,6.12209981 48.9333107,6.54449967 48.3231703,7.30131049 L48.3231703,2.93376506 L46.2313458,2.93376506 L46.2313458,13.3129989 L48.3231703,13.3129989 L48.3231703,9.04832867 C48.3231703,8.32467982 48.9085762,7.73806504 49.6306519,7.73806504 C50.3526613,7.73806504 50.9380671,8.32467982 50.9380671,9.04832867 L50.9380671,13.3129989 L53.0735252,13.3129989 L53.0735252,8.65523629 C53.0735252,7.25618628 51.9417716,6.12209981 50.5458293,6.12209981" id="Fill-24" fill="#000000" mask="url(#mask-2)"></path>
                    <path d="M55.5115204,8.64110091 C55.5819442,8.47509165 55.6881767,8.32024715 55.8300189,8.17643448 C55.9930811,7.99959275 56.1902278,7.85192559 56.4185414,7.74526232 C56.4231833,7.74306924 56.4278915,7.74120845 56.4325996,7.73914828 C56.4343901,7.73815143 56.4360479,7.73715458 56.4378383,7.73622418 C56.4399603,7.7354267 56.442016,7.73489504 56.444138,7.73409756 C57.2434013,7.37483173 58.1744274,7.61972529 58.7762124,8.27944263 L55.3115886,9.89846487 C55.253101,9.45626087 55.3254478,9.0173797 55.5115204,8.64110091 M58.260103,11.7031011 C57.4397523,12.0864908 56.4738459,11.8267109 55.8672864,11.1304423 L60.9265245,8.76610628 C60.8832225,8.5907266 60.8254644,8.4170748 60.7529186,8.24634711 C60.6410496,8.01481138 60.5221515,7.80201648 60.3968874,7.60636746 C59.4651982,6.28600239 57.6908111,5.75913233 56.090494,6.37126655 C55.9921527,6.41080839 55.8926178,6.45354015 55.7918892,6.49952831 C53.9570252,7.3813445 53.1380008,9.51633787 53.9631259,11.2897394 C54.7072837,12.889024 56.5356491,13.6504203 58.2468405,13.1673453 C58.3494921,13.1361106 58.4531384,13.1025499 58.5587077,13.0646695 C58.652805,13.0293144 58.7465044,12.9911017 58.8392755,12.9477718 C59.4207689,12.6760297 59.901998,12.2788835 60.2637321,11.8071726 L59.1979592,10.7390114 C59.010892,11.1547655 58.691001,11.5017368 58.260103,11.7031011" id="Fill-25" fill="#000000" mask="url(#mask-2)"></path>
                    <path d="M62.8223363,9.89849145 C62.7637161,9.45622099 62.8361292,9.01740629 63.0222018,8.64112749 C63.0926919,8.47511823 63.1989244,8.32020727 63.3407003,8.17646106 C63.5037625,7.99961934 63.7009092,7.85195217 63.9292228,7.74522244 C63.933931,7.74302937 63.9386392,7.74123503 63.943281,7.73910841 C63.9450715,7.73817801 63.9467293,7.73718116 63.9485197,7.73618431 C63.950708,7.73538683 63.9527637,7.73485517 63.9548857,7.73405769 C64.7540827,7.37485831 65.6851751,7.61975187 66.2868938,8.27940276 L62.8223363,9.89849145 Z M68.2636664,8.24630723 C68.1516647,8.0147715 68.0328329,7.80197661 67.9076351,7.60639404 C66.9759459,6.28602897 65.2015588,5.75909246 63.6012417,6.37122668 C63.5029004,6.41083497 63.4033655,6.45356674 63.3025043,6.49955489 C61.4677066,7.38137108 60.6486822,9.51636446 61.4738073,11.289766 C62.2179651,12.8890506 64.0463305,13.6504469 65.7575882,13.1673719 C65.8602398,13.1360707 65.9638861,13.10251 66.0693891,13.0646961 C66.1635527,13.029341 66.2572521,12.9911283 66.3498906,12.947732 C66.9315166,12.6759898 67.4126794,12.27891 67.7744798,11.8071327 L66.7086406,10.7390379 C66.5215734,11.1547921 66.2017487,11.5017634 65.7707844,11.7031277 C64.9505,12.086451 63.9845273,11.8267375 63.3780342,11.1304024 L68.4372059,8.76613286 C68.3939702,8.59075319 68.3361458,8.41710139 68.2636664,8.24630723 L68.2636664,8.24630723 Z" id="Fill-26" fill="#000000" mask="url(#mask-2)"></path>
                    <path d="M88.1552901,8.64110091 C88.2257802,8.47509165 88.3320127,8.32024715 88.4737886,8.17643448 C88.6369171,7.99959275 88.8339975,7.85192559 89.0623774,7.74526232 C89.0670193,7.74306924 89.0716612,7.74120845 89.0764357,7.73914828 C89.0781598,7.73815143 89.0798176,7.73715458 89.0816743,7.73622418 C89.0837963,7.7354267 89.085852,7.73489504 89.087974,7.73409756 C89.887171,7.37483173 90.8182634,7.61972529 91.4199821,8.27944263 L87.9554246,9.89846487 C87.8968707,9.45626087 87.9692176,9.0173797 88.1552901,8.64110091 M90.9038727,11.7031011 C90.0835884,12.0864908 89.117682,11.8267109 88.5111225,11.1304423 L93.5702942,8.76610628 C93.5270585,8.5907266 93.4693004,8.4170748 93.3967547,8.24634711 C93.2848193,8.01481138 93.1659212,7.80201648 93.0407234,7.60636746 C92.1089679,6.28600239 90.3346471,5.75913233 88.73433,6.37126655 C88.6359887,6.41080839 88.5364538,6.45354015 88.435659,6.49952831 C86.6007949,7.3813445 85.7817705,9.51633787 86.6068957,11.2897394 C87.3510534,12.889024 89.1794188,13.6504203 90.8906102,13.1673453 C90.9933281,13.1361106 91.0969081,13.1025499 91.2024774,13.0646695 C91.2965747,13.0293144 91.3903405,12.9911017 91.4830452,12.9477718 C92.0646049,12.6760297 92.5457677,12.2788835 92.9075681,11.8071726 L91.8417953,10.7390114 C91.6546617,11.1547655 91.3347707,11.5017368 90.9038727,11.7031011" id="Fill-27" fill="#000000" mask="url(#mask-2)"></path>
                    <path d="M73.1329393,6.12209981 L68.9944489,6.12209981 L68.9944489,15.7743619 L71.0863398,15.7743619 L71.0863398,8.20804801 L73.1224619,8.20804801 C73.954351,8.20804801 74.6286817,8.88384792 74.6286817,9.71754934 C74.6286817,10.5512508 73.954351,11.2270507 73.1224619,11.2270507 L71.7312278,11.2270507 L71.7312278,13.3129989 L73.1329393,13.3129989 C75.1143537,13.3129989 76.7206389,11.7032806 76.7206389,9.71754934 C76.7206389,7.73181809 75.1143537,6.12209981 73.1329393,6.12209981" id="Fill-28" fill="#000000" mask="url(#mask-2)"></path>
                    <path d="M45.6629955,10.3512289 C45.6629955,9.83352986 45.4813658,9.34686621 45.1624695,8.92273848 C44.9404556,8.61710333 44.6445697,8.34629159 44.275077,8.11010388 C44.2165231,8.07262221 44.1563778,8.0358051 44.0940441,8.00011776 C43.5125507,7.68006148 42.7573851,7.41802205 41.8278843,7.213933 C41.792805,7.20622401 41.7581899,7.1983821 41.7241717,7.19040727 C40.6685446,6.94385229 40.1355256,6.58770993 40.124584,6.1221131 C40.1239209,6.09333728 40.1249156,6.06429563 40.1282312,6.03472232 C40.1392391,5.92433746 40.1599285,5.82837374 40.2096628,5.74729636 C40.4461991,5.37892594 40.9920165,5.12087391 41.6278198,5.12087391 C42.4630907,5.12087391 43.1429254,5.56606848 43.1703124,6.1221131 L45.3950934,6.1221131 C45.3712209,4.72465806 43.914868,3.57907455 42.0459857,3.42874912 C41.8998995,3.41838184 41.7514261,3.41273301 41.6010295,3.41200198 C39.5373214,3.42256863 37.8680394,4.64118823 37.8597504,6.14557238 C37.8597504,6.14929396 37.8593525,6.15301555 37.8593525,6.15680359 C37.8593525,6.16737023 37.8602809,6.17780396 37.8604798,6.18830414 C37.8746044,7.02705629 38.2012592,7.67713738 38.8409749,8.13794931 C39.2462763,8.42996079 39.7767755,8.6462779 40.4332682,8.78630252 C40.9355846,8.86578494 41.5115741,9.01863574 42.1590484,9.24306058 C42.8545991,9.4149845 43.3541304,9.8851004 43.3541304,10.4384867 C43.3541304,10.6750732 43.2626856,10.8963081 43.1039337,11.0856437 C43.0336426,11.1846645 42.9478343,11.2629507 42.8447186,11.3246891 C42.5219098,11.5587502 42.0725107,11.7040914 41.5751677,11.7040914 C40.5927495,11.7040914 39.544019,10.8981024 39.4527068,10.1402283 L37.4252716,10.1431524 C37.4252716,11.7877606 39.3175621,13.3290947 41.5751677,13.3290947 C43.8065136,13.3290947 45.6190303,12.0264736 45.6610061,10.4083153 C45.6615366,10.3892422 45.6629955,10.3703685 45.6629955,10.3512289" id="Fill-29" fill="#000000" mask="url(#mask-2)"></path>
                    <g id="编组-4" mask="url(#mask-2)">
                        <g transform="translate(-0.000007, -0.000027)">
                            <path d="M22.7422943,14.1184295 L20.9519259,15.1462515 L20.9519259,15.1462515 L22.0691571,11.1309274 L24.0885686,9.68535763 L25.3386899,10.4563238 L22.7422943,14.1184295 Z M28.8486051,2.31296487 L24.3290173,0 L15.9147698,3.9512596 L15.9147698,23.9483309 L19.2803893,21.1535537 L20.4468906,16.9613879 L23.7520332,16.9613879 L31.8296126,10.0226927 L28.8486051,2.31296487 Z" id="Fill-30" fill="#4575F0"></path>
                            <path d="M9.08731833,14.1184295 L6.49098903,10.4563238 L7.74104404,9.68535763 L9.76038917,11.1309274 L10.8776204,15.146185 L9.08731833,14.1184295 Z M7.5006616,0 L7.5006616,0 L7.50059529,0 L2.98107383,2.31296487 L-1.64448165e-13,10.0226927 L8.07764577,16.9613879 L11.382722,16.9613879 L12.5490907,21.1535537 L15.9147765,23.9483309 L15.9147765,3.9512596 L7.5006616,0 Z" id="Fill-31" fill="#192A86"></path>
                        </g>
                    </g>
                </g>
            </g>
        </g>
    </g>
</svg>