<?xml version="1.0" encoding="UTF-8"?>
<svg width="850px" height="159px" viewBox="0 0 850 159" version="1.1" xmlns="http://www.w3.org/2000/svg" xmlns:xlink="http://www.w3.org/1999/xlink">
    <title>编组 8</title>
    <defs>
        <linearGradient x1="0%" y1="49.3637625%" x2="100%" y2="50%" id="linearGradient-1">
            <stop stop-color="#683EFF" offset="0%"></stop>
            <stop stop-color="#FFA3D8" offset="100%"></stop>
        </linearGradient>
        <filter x="-69.0%" y="-144.4%" width="238.1%" height="388.7%" filterUnits="objectBoundingBox" id="filter-2">
            <feGaussianBlur stdDeviation="10.5860535" in="SourceGraphic"></feGaussianBlur>
        </filter>
        <rect id="path-3" x="0.332527207" y="0" width="801" height="118" rx="22"></rect>
        <filter x="-0.1%" y="-0.8%" width="100.2%" height="101.7%" filterUnits="objectBoundingBox" id="filter-4">
            <feMorphology radius="1" operator="erode" in="SourceAlpha" result="shadowSpreadInner1"></feMorphology>
            <feGaussianBlur stdDeviation="0.5" in="shadowSpreadInner1" result="shadowBlurInner1"></feGaussianBlur>
            <feOffset dx="0" dy="0" in="shadowBlurInner1" result="shadowOffsetInner1"></feOffset>
            <feComposite in="shadowOffsetInner1" in2="SourceAlpha" operator="arithmetic" k2="-1" k3="1" result="shadowInnerInner1"></feComposite>
            <feColorMatrix values="0 0 0 0 1   0 0 0 0 1   0 0 0 0 1  0 0 0 1 0" type="matrix" in="shadowInnerInner1"></feColorMatrix>
        </filter>
        <filter x="-45.6%" y="-60.4%" width="191.1%" height="220.8%" filterUnits="objectBoundingBox" id="filter-5">
            <feGaussianBlur stdDeviation="9.26279677" in="SourceGraphic"></feGaussianBlur>
        </filter>
        <filter x="-41.5%" y="-54.5%" width="183.0%" height="209.0%" filterUnits="objectBoundingBox" id="filter-6">
            <feGaussianBlur stdDeviation="9.26279677" in="SourceGraphic"></feGaussianBlur>
        </filter>
    </defs>
    <g id="页面-1" stroke="none" stroke-width="1" fill="none" fill-rule="evenodd">
        <g id="画板" transform="translate(-376.000000, -150.000000)">
            <g id="编组-8" transform="translate(376.000000, 150.000000)">
                <g id="路径">
                    <g id="编组">
                        <rect id="矩形" fill="#FFFFFF" opacity="0.497365552" x="0" y="0" width="850" height="159" rx="26"></rect>
                        <rect id="矩形" fill="url(#linearGradient-1)" x="0" y="0" width="850" height="159" rx="26"></rect>
                    </g>
                    <path d="M34,64 C29.2912777,51.6119106 20.872174,42 11.0949112,42 C1.3793474,42 -7.27281097,51.5076972 -12,63.7659679" fill="#FFA0A0" filter="url(#filter-2)" transform="translate(11.000000, 53.000000) scale(1, -1) rotate(90.000000) translate(-11.000000, -53.000000) "></path>
                </g>
                <path d="M740,20.3398768 C734.062915,10.5026527 723.271365,3.92495907 710.943512,3.92495907 C698.693453,3.92495907 687.960369,10.4198981 682,20.1540349" id="路径" fill="#9471FF" opacity="0.961210029"></path>
                <g id="编组" transform="translate(24.667473, 20.000000)">
                    <rect id="矩形" fill="#FFFFFF" opacity="0.204828307" x="0.332527207" y="0" width="801" height="118" rx="22"></rect>
                    <g id="矩形" opacity="0.497365552" fill="black" fill-opacity="1">
                        <use filter="url(#filter-4)" xlink:href="#path-3"></use>
                    </g>
                </g>
                <path d="M684.470009,20 C681.780746,24.499065 680,30.1983486 680,35.8049577 C680,52.4812191 693.655315,66 710.5,66 C727.344685,66 741,52.4812191 741,35.8049577 C741,30.0105447 739.35137,24.5973399 736.493156,20" id="路径" fill="#9471FF" filter="url(#filter-5)"></path>
                <g id="编组-2" transform="translate(149.500000, 119.500000) scale(1, -1) translate(-149.500000, -119.500000) translate(116.000000, 86.000000)">
                    <path d="M62,16 C56.1652789,6.41143012 45.5597897,0 33.4444858,0 C21.405635,0 10.8576038,6.33076732 5,15.8188556" id="路径" fill="#FEA3D9" opacity="0.961210029"></path>
                    <path d="M4.90968186,16 C1.95590185,20.9880938 0,27.3068648 0,33.5228879 C0,52.0117864 14.9984609,67 33.5,67 C52.0015391,67 67,52.0117864 67,33.5228879 C67,27.0986474 65.1892095,21.0970507 62.0498602,16" id="路径" fill="#EB99DF" filter="url(#filter-6)"></path>
                </g>
            </g>
        </g>
    </g>
</svg>