<?xml version="1.0" encoding="UTF-8"?>
<svg width="129px" height="20px" viewBox="0 0 129 20" version="1.1" xmlns="http://www.w3.org/2000/svg" xmlns:xlink="http://www.w3.org/1999/xlink">
    <title>logo2</title>
    <defs>
        <polygon id="path-1" points="0.128182252 0.209824992 6.30731874 0.209824992 6.30731874 9.82359873 0.128182252 9.82359873"></polygon>
        <polygon id="path-3" points="0.295972324 0.0879612578 13.940556 0.0879612578 13.940556 17.7566094 0.295972324 17.7566094"></polygon>
    </defs>
    <g id="页面-1" stroke="none" stroke-width="1" fill="none" fill-rule="evenodd">
        <g id="首页-中" transform="translate(-845.000000, -1388.000000)">
            <g id="合作伙伴" transform="translate(845.000000, 1341.000000)">
                <g id="logo" transform="translate(0.000000, 42.000000)">
                    <g id="编组" transform="translate(0.000000, 4.894737)">
                        <polygon id="Fill-1" fill="#000000" points="31.4947766 6.87639803 29.426623 6.87639803 29.426623 14.7213314 27.3964204 14.7213314 27.3964204 6.87639803 25.3154983 6.87639803 25.3154983 5.10755768 27.3964204 5.10755768 29.426623 5.10755768 31.4947766 5.10755768"></polygon>
                        <g transform="translate(0.000000, 0.268193)">
                            <path d="M34.0617202,9.67207033 C34.0617202,11.261427 35.3002715,12.5562737 36.8193766,12.5562737 C38.3388364,12.5562737 39.5773876,11.261427 39.5773876,9.67207033 C39.5773876,8.08235756 38.3388364,6.78751087 36.8193766,6.78751087 C35.3002715,6.78751087 34.0617202,8.08235756 34.0617202,9.67207033 M32.0063352,9.67207033 C32.0063352,6.96699457 34.1638688,4.76262135 36.8193766,4.76262135 C39.4752391,4.76262135 41.6327727,6.96699457 41.6327727,9.67207033 C41.6327727,12.37679 39.4752391,14.5815193 36.8193766,14.5815193 C34.1638688,14.5815193 32.0063352,12.37679 32.0063352,9.67207033" id="Fill-2" fill="#000000"></path>
                            <polygon id="Fill-4" fill="#000000" points="47.1236832 9.65921446 51.0943537 14.4532811 48.6814487 14.4532811 45.9234377 11.1075482 45.0044554 12.2229112 45.0044554 14.4532811 44.8895382 14.4532811 43.166136 14.4532811 43.1533674 14.4532811 43.1533674 4.83950732 45.0044554 4.83950732 45.0044554 9.31306732 48.7069859 4.83950732 51.1198909 4.83950732"></polygon>
                            <polygon id="Fill-6" fill="#000000" points="59.3560794 12.6716204 59.3560794 14.4532811 52.3213069 14.4532811 52.3213069 4.83950732 59.3560794 4.83950732 59.3560794 6.60834767 54.3515094 6.60834767 54.3387409 6.60834767 54.3387409 8.76179596 58.0409167 8.76179596 58.0409167 10.4925316 54.3387409 10.4925316 54.3387409 12.6716204 54.3515094 12.6716204"></polygon>
                            <path d="M79.2619248,8.15927915 C79.2619248,7.30067756 78.7380588,6.78751087 77.9850679,6.64684408 C77.7807708,6.60838329 75.5210886,6.63402382 75.5210886,6.63402382 L75.5210886,6.76222646 L75.5210886,9.76181218 C75.5210886,9.76181218 77.6786222,9.79991686 77.9850679,9.73617165 C78.7380588,9.58232848 79.2619248,9.01823685 79.2619248,8.15927915 L79.2619248,8.15927915 Z M78.010605,4.83954293 C79.5807844,4.83954293 81.2279299,6.30069694 81.2279299,8.15927915 C81.2279299,10.0182175 79.8233872,11.5178323 78.010605,11.5178323 C77.5126308,11.5178323 75.5210886,11.5434728 75.5210886,11.5434728 L75.5210886,14.4533167 L73.5040093,14.4533167 L73.5040093,4.83954293 L77.091268,4.83954293 L78.010605,4.83954293 Z" id="Fill-8" fill="#000000"></path>
                            <path d="M84.3951381,9.67207033 C84.3951381,11.261427 85.6336894,12.5562737 87.1527945,12.5562737 C88.6722543,12.5562737 89.9108055,11.261427 89.9108055,9.67207033 C89.9108055,8.08235756 88.6722543,6.78751087 87.1527945,6.78751087 C85.6336894,6.78751087 84.3951381,8.08235756 84.3951381,9.67207033 M82.3397531,9.67207033 C82.3397531,6.96699457 84.4972867,4.76262135 87.1527945,4.76262135 C89.808657,4.76262135 91.9661906,6.96699457 91.9661906,9.67207033 C91.9661906,12.37679 89.808657,14.5815193 87.1527945,14.5815193 C84.4972867,14.5815193 82.3397531,12.37679 82.3397531,9.67207033" id="Fill-10" fill="#000000"></path>
                            <path d="M102.474582,12.0435343 C101.708467,13.5687897 100.087214,14.55595 98.2996139,14.55595 C95.6441061,14.55595 93.4865725,12.3508646 93.4865725,9.64650103 C93.4865725,6.94178138 95.6441061,4.73669592 98.2996139,4.73669592 C100.087214,4.73669592 101.721236,5.72385627 102.474582,7.26193187 L100.597956,7.80038297 C100.16347,7.14654949 99.4360166,6.68501998 98.2996139,6.68501998 C96.5889803,6.69784024 95.5933865,8.12088958 95.5933865,9.64650103 C95.5933865,11.1717564 96.6017489,12.5559888 98.2996139,12.5559888 C99.4743224,12.5559888 100.16347,12.0948154 100.597956,11.4278055 L102.474582,12.0435343 Z" id="Fill-12" fill="#000000"></path>
                            <polygon id="Fill-14" fill="#000000" points="108.386749 9.65921446 112.357419 14.4532811 109.944514 14.4532811 107.186503 11.1075482 106.267521 12.2229112 106.267521 14.4532811 106.152604 14.4532811 104.429201 14.4532811 104.416433 14.4532811 104.416433 4.83950732 106.267521 4.83950732 106.267521 9.31306732 109.970051 4.83950732 112.382956 4.83950732"></polygon>
                            <polygon id="Fill-16" fill="#000000" points="120.619145 12.6716204 120.619145 14.4532811 113.584372 14.4532811 113.584372 4.83950732 120.619145 4.83950732 120.619145 6.60834767 115.614575 6.60834767 115.601806 6.60834767 115.601806 8.76179596 119.303982 8.76179596 119.303982 10.4925316 115.601806 10.4925316 115.601806 12.6716204 115.614575 12.6716204"></polygon>
                            <g transform="translate(122.010777, 4.629540)">
                                <mask id="mask-2" fill="white">
                                    <use xlink:href="#path-1"></use>
                                </mask>
                                <g id="Clip-19"></g>
                                <polygon id="Fill-18" fill="#000000" mask="url(#mask-2)" points="6.30746061 1.97866535 4.239307 1.97866535 4.239307 9.82359873 2.20910443 9.82359873 2.20910443 1.97866535 0.128182252 1.97866535 0.128182252 0.209824992 2.20910443 0.209824992 4.239307 0.209824992 6.30746061 0.209824992"></polygon>
                            </g>
                            <path d="M11.2415197,1.48725749 L0.324392606,1.48725749 C0.145277948,1.48725749 0.000212809495,1.63326606 0.000212809495,1.81310588 L0.000212809495,7.70508567 C0.000212809495,7.88492549 0.145277948,8.03057794 0.324392606,8.03057794 L3.27322284,8.03057794 L3.27322284,18.9046549 C3.27322284,19.0844947 3.41828797,19.2301472 3.59740263,19.2301472 L8.39412864,19.2301472 C8.5732433,19.2301472 8.71866312,19.0844947 8.71866312,18.9046549 L8.71866312,8.03057794 L11.2415197,8.03057794 C11.4206343,8.03057794 11.5656995,7.88492549 11.5656995,7.70508567 L11.5656995,1.81310588 C11.5656995,1.63326606 11.4206343,1.48725749 11.2415197,1.48725749" id="Fill-20" fill="#29AEFF"></path>
                            <g transform="translate(6.029602, 0.000000)">
                                <mask id="mask-4" fill="white">
                                    <use xlink:href="#path-3"></use>
                                </mask>
                                <g id="Clip-23"></g>
                                <path d="M0.304530387,8.87671538 C0.304530387,6.13389106 0.313042767,3.3903545 0.295972324,0.647530182 C0.293180547,0.217339092 0.421930291,0.0848630272 0.848258645,0.0876671791 C3.07814747,0.105161779 5.30874565,0.0716866445 7.53863447,0.102312831 C10.1937876,0.138993032 12.1324821,1.41033591 13.2862642,3.77603079 C15.1561503,7.61142652 12.8336894,12.1576347 8.66262329,12.952135 C7.8560753,13.1063342 7.04562581,13.0262076 6.23694973,13.0489992 C5.66059068,13.0653806 5.65101426,13.0643123 5.65065957,13.6572495 C5.64959553,14.858437 5.64037378,16.0596246 5.65668918,17.260456 C5.66165473,17.6215601 5.55241252,17.7604463 5.17715845,17.7566094 C3.74495055,17.7401475 2.31238797,17.7518995 0.879825387,17.7494066 C0.357378078,17.7483383 0.305594434,17.6938521 0.305239752,17.1507715 C0.303821022,14.3926341 0.304530387,11.6348528 0.304530387,8.87671538" id="Fill-22" fill="#2761E7" mask="url(#mask-4)"></path>
                            </g>
                            <polygon id="Fill-24" fill="#000000" points="67.4295751 4.53271127 67.4295751 11.8370569 62.7764955 4.53271127 60.9225701 4.53271127 60.9225701 14.453103 62.555883 14.453103 62.555883 7.1501819 67.2830912 14.453103 69.0625333 14.453103 69.0625333 4.53271127"></polygon>
                        </g>
                    </g>
                </g>
            </g>
        </g>
    </g>
</svg>