<?xml version="1.0" encoding="UTF-8"?>
<svg width="47px" height="45px" viewBox="0 0 47 45" version="1.1" xmlns="http://www.w3.org/2000/svg" xmlns:xlink="http://www.w3.org/1999/xlink">
    <title>编组 15</title>
    <defs>
        <linearGradient x1="50%" y1="0%" x2="50%" y2="97.2535321%" id="linearGradient-1">
            <stop stop-color="#79EBE7" offset="0%"></stop>
            <stop stop-color="#38C1E9" offset="100%"></stop>
        </linearGradient>
        <path d="M2.40772863,3.42032201 L39.5922714,3.42032201 C40.9220232,3.42032201 42,4.49829883 42,5.82805064 L42,31.7954914 C42,33.1252432 40.9220232,34.2032201 39.5922714,34.2032201 L2.40772863,34.2032201 C1.07797683,34.2032201 -2.05759842e-15,33.1252432 0,31.7954914 L0,26.612052 C-0.000329335424,25.2826543 1.07682786,24.2045572 2.40622533,24.2037267 C5.34263397,24.2037267 7.35381194,24.2037267 8.43975926,24.2037267 C10.4807688,24.2037267 12.7024568,22.2084169 12.7024568,19.769832 C12.7024568,17.3312471 10.4807688,15.3560258 8.43975926,15.3560258 C6.42908238,15.3560258 4.41840551,15.3560258 2.40772863,15.3560258 C1.07797683,15.3560258 1.62847629e-16,14.278049 0,12.9482972 L0,5.82805064 C-6.06936839e-16,4.49829883 1.07797683,3.42032201 2.40772863,3.42032201 Z" id="path-2"></path>
        <filter x="-1.2%" y="-1.6%" width="102.4%" height="103.2%" filterUnits="objectBoundingBox" id="filter-3">
            <feGaussianBlur stdDeviation="0.5" in="SourceAlpha" result="shadowBlurInner1"></feGaussianBlur>
            <feOffset dx="0" dy="0" in="shadowBlurInner1" result="shadowOffsetInner1"></feOffset>
            <feComposite in="shadowOffsetInner1" in2="SourceAlpha" operator="arithmetic" k2="-1" k3="1" result="shadowInnerInner1"></feComposite>
            <feColorMatrix values="0 0 0 0 1   0 0 0 0 1   0 0 0 0 1  0 0 0 1 0" type="matrix" in="shadowInnerInner1"></feColorMatrix>
        </filter>
        <ellipse id="path-4" cx="7.72307692" cy="19.8520669" rx="1.8" ry="1.80579648"></ellipse>
        <filter x="-13.9%" y="-13.8%" width="127.8%" height="127.7%" filterUnits="objectBoundingBox" id="filter-5">
            <feGaussianBlur stdDeviation="0.5" in="SourceAlpha" result="shadowBlurInner1"></feGaussianBlur>
            <feOffset dx="0" dy="0" in="shadowBlurInner1" result="shadowOffsetInner1"></feOffset>
            <feComposite in="shadowOffsetInner1" in2="SourceAlpha" operator="arithmetic" k2="-1" k3="1" result="shadowInnerInner1"></feComposite>
            <feColorMatrix values="0 0 0 0 1   0 0 0 0 1   0 0 0 0 1  0 0 0 0.780840253 0" type="matrix" in="shadowInnerInner1"></feColorMatrix>
        </filter>
        <filter x="-15.6%" y="-30.0%" width="131.1%" height="160.1%" filterUnits="objectBoundingBox" id="filter-6">
            <feGaussianBlur stdDeviation="1.80579648" in="SourceGraphic"></feGaussianBlur>
        </filter>
    </defs>
    <g id="页面-1" stroke="none" stroke-width="1" fill="none" fill-rule="evenodd">
        <g id="画板" transform="translate(-259.000000, -261.000000)">
            <g id="编组-15" transform="translate(259.000000, 261.000000)">
                <g id="编组-7" transform="translate(24.000000, 22.500000) scale(-1, 1) translate(-24.000000, -22.500000) translate(3.000000, 0.000000)">
                    <path d="M21.1478487,1.33105618 L36.1375145,15.178582 L36.1375145,15.178582 C35.8777059,15.178582 35.803072,15.178582 35.9136126,15.178582 C36.2136629,15.178582 32.8685438,15.5099066 32.2570809,15.1037374 C30.3545572,15.985229 28.7370109,15.9978071 27.404442,15.1414717 C27.1031165,14.9455181 26.751253,14.8423251 26.3918231,14.842255 L23.143035,14.842255 C23.0223867,14.842255 22.9020191,14.8306312 22.7836003,14.8075446 L12.5268351,12.8079147 C11.5086101,12.6094044 10.8441,11.6230456 11.0426103,10.6048206 C11.1040409,10.2897228 11.2452048,9.9956276 11.4526283,9.75060551 L18.4396042,1.49713844 C19.1098845,0.705360154 20.2951171,0.606866521 21.0868954,1.27714675 C21.1076001,1.29467431 21.1279226,1.31264834 21.1478487,1.33105618 Z" id="矩形" fill="#FFFFFF" opacity="0.403956214"></path>
                    <path d="M4.02416185,15.4945599 L8.34119745,6.24267821 C8.90678253,5.02335612 10.2899247,4.50956724 11.4305318,5.09509863 C18.4918554,8.09555721 23.5689976,10.2493658 26.6619586,11.5565244 C29.7307197,12.8534555 33.7716652,13.928994 36.0600493,15.1037374 C36.6454597,15.4042582 36.8932887,15.4484157 36.8035364,15.2362101 C37.6767549,15.6844774 36.6445493,14.3765444 36.5668527,15.3503551 L7.79365185,15.6860941 L4.02416185,15.4945599 Z" id="路径" fill="#FFFFFF" opacity="0.766874092"></path>
                    <g id="编组-4" transform="translate(0.000000, 10.796780)">
                        <g id="矩形" opacity="0.985124455">
                            <use fill="url(#linearGradient-1)" fill-rule="evenodd" xlink:href="#path-2"></use>
                            <use fill="black" fill-opacity="1" filter="url(#filter-3)" xlink:href="#path-2"></use>
                        </g>
                        <g id="椭圆形">
                            <use fill="#57D1F2" fill-rule="evenodd" xlink:href="#path-4"></use>
                            <use fill="black" fill-opacity="1" filter="url(#filter-5)" xlink:href="#path-4"></use>
                        </g>
                        <path d="M34.5382879,0 L37.4510645,1.35296899 C38.6144399,1.89335061 39.195519,3.47261703 38.7489411,4.88035926 L33.9814222,16.2765577 C33.5348442,17.6842999 32.2297191,18.3874347 31.0663436,17.847053 L5.51266199,6.73961762 C4.34928654,6.199236 3.7682074,4.61996959 4.21478539,3.21222735 L5.10108492,0.418356373 L34.5382879,0 Z" id="路径" filter="url(#filter-6)"></path>
                    </g>
                </g>
            </g>
        </g>
    </g>
</svg>