<?xml version="1.0" encoding="UTF-8"?>
<svg width="38px" height="38px" viewBox="0 0 38 38" version="1.1" xmlns="http://www.w3.org/2000/svg" xmlns:xlink="http://www.w3.org/1999/xlink">
    <title>编组 23</title>
    <defs>
        <linearGradient x1="50%" y1="0%" x2="50%" y2="100%" id="linearGradient-1">
            <stop stop-color="#C2A5F5" offset="0%"></stop>
            <stop stop-color="#8F6CE8" offset="100%"></stop>
        </linearGradient>
        <linearGradient x1="50%" y1="-50.313816%" x2="50%" y2="106.824141%" id="linearGradient-2">
            <stop stop-color="#A38AEC" offset="0%"></stop>
            <stop stop-color="#DDD2FF" offset="45.151333%"></stop>
            <stop stop-color="#F5F2FF" offset="100%"></stop>
        </linearGradient>
        <filter x="-37.5%" y="-37.5%" width="175.0%" height="175.0%" filterUnits="objectBoundingBox" id="filter-3">
            <feGaussianBlur stdDeviation="1.5" in="SourceGraphic"></feGaussianBlur>
        </filter>
    </defs>
    <g id="页面-1" stroke="none" stroke-width="1" fill="none" fill-rule="evenodd">
        <g id="画板" transform="translate(-297.000000, -918.000000)">
            <g id="编组-23" transform="translate(297.000000, 918.000000)">
                <rect id="矩形" fill="url(#linearGradient-1)" x="9" y="19" width="22.0028876" height="14" rx="7"></rect>
                <path d="M19.9712414,4.22878325 C22.829315,4.22878325 25.416815,5.38724646 27.2897966,7.26022807 C29.1627782,9.13320967 30.3212414,11.7207097 30.3212414,14.5787833 C30.3212414,17.4368568 29.1627782,20.0243568 27.2897966,21.8973384 C25.416815,23.77032 22.829315,24.9287833 19.9712414,24.9287833 C17.1131678,24.9287833 14.5256678,23.77032 12.6526862,21.8973384 C10.7797046,20.0243568 9.62124142,17.4368568 9.62124142,14.5787833 C9.62124142,11.7207097 10.7797046,9.13320967 12.6526862,7.26022807 C14.5256678,5.38724646 17.1131678,4.22878325 19.9712414,4.22878325 Z" id="矩形" stroke="#E4DBFF" stroke-width="0.3" fill="url(#linearGradient-2)" transform="translate(19.971241, 14.578783) scale(1, -1) translate(-19.971241, -14.578783) "></path>
                <circle id="椭圆形" fill="#B192F1" filter="url(#filter-3)" cx="20" cy="20" r="6"></circle>
                <path d="M16.8026491,15.554391 C17.5743029,17.184797 18.5557967,18 19.7471304,18 C20.9695764,18 21.9101726,17.1416623 22.5689191,15.4249868 L22.5689746,15.4250081 C22.7837371,14.8653427 23.411535,14.5857438 23.9712003,14.8005063 C24.5277694,15.0140807 24.8079257,15.636561 24.5987159,16.1947854 C24.5987159,16.1947854 24.5987159,16.1947854 24.5987159,16.1947854 C23.8549787,18.1792626 22.4635254,19.9541306 19.7376917,19.9541306 C17.0118581,19.9541306 15.6373126,18.1865253 14.8558086,16.4541306 C14.8558086,16.4541306 14.8558086,16.4541306 14.8558086,16.4541306 C14.6122632,15.9142526 14.8524882,15.2791623 15.3923662,15.0356169 C15.9252815,14.7952124 16.5525571,15.0259527 16.8026591,15.5543862 Z" id="矩形" fill="#FFFFFF"></path>
            </g>
        </g>
    </g>
</svg>