<?xml version="1.0" encoding="UTF-8"?>
<svg width="113px" height="21px" viewBox="0 0 113 21" version="1.1" xmlns="http://www.w3.org/2000/svg" xmlns:xlink="http://www.w3.org/1999/xlink">
    <title>编组 17</title>
    <defs>
        <linearGradient x1="100%" y1="37.3758048%" x2="0%" y2="116.398473%" id="linearGradient-1">
            <stop stop-color="#9F5DF2" offset="0%"></stop>
            <stop stop-color="#350E87" offset="100%"></stop>
        </linearGradient>
        <linearGradient x1="2.87747141%" y1="75.4369884%" x2="92.2088129%" y2="35.9672377%" id="linearGradient-2">
            <stop stop-color="#5023B0" offset="0%"></stop>
            <stop stop-color="#C363F3" offset="53.4906415%"></stop>
            <stop stop-color="#F891C2" offset="100%"></stop>
        </linearGradient>
    </defs>
    <g id="页面-1" stroke="none" stroke-width="1" fill="none" fill-rule="evenodd">
        <g id="画板" transform="translate(-16.000000, -32.000000)">
            <g id="编组-17" transform="translate(16.000000, 32.000000)">
                <g id="BubbleSwap" transform="translate(28.245000, 5.360000)" fill="#3D2A89" fill-rule="nonzero" stroke="#3D2A89" stroke-width="0.6">
                    <path d="M3.135,11.76 C2.585,11.76 2.03,11.7425 1.47,11.7075 C0.91,11.6725 0.42,11.6 0,11.49 L0,1.395 C0.22,1.355 0.455,1.3175 0.705,1.2825 C0.955,1.2475 1.21,1.22 1.47,1.2 C1.73,1.18 1.9875,1.165 2.2425,1.155 C2.4975,1.145 2.74,1.14 2.97,1.14 C3.6,1.14 4.185,1.1875 4.725,1.2825 C5.265,1.3775 5.7325,1.535 6.1275,1.755 C6.5225,1.975 6.83,2.265 7.05,2.625 C7.27,2.985 7.38,3.43 7.38,3.96 C7.38,4.45 7.2625,4.87 7.0275,5.22 C6.7925,5.57 6.465,5.85 6.045,6.06 C6.675,6.27 7.14,6.58 7.44,6.99 C7.74,7.4 7.89,7.92 7.89,8.55 C7.89,9.62 7.5,10.4225 6.72,10.9575 C5.94,11.4925 4.745,11.76 3.135,11.76 Z M1.86,6.96 L1.86,10.125 C2.07,10.145 2.295,10.16 2.535,10.17 C2.775,10.18 2.995,10.185 3.195,10.185 C3.585,10.185 3.9475,10.16 4.2825,10.11 C4.6175,10.06 4.9075,9.9725 5.1525,9.8475 C5.3975,9.7225 5.5925,9.555 5.7375,9.345 C5.8825,9.135 5.955,8.865 5.955,8.535 C5.955,7.945 5.74,7.535 5.31,7.305 C4.88,7.075 4.285,6.96 3.525,6.96 L1.86,6.96 Z M1.86,5.475 L3.195,5.475 C3.915,5.475 4.48,5.3725 4.89,5.1675 C5.3,4.9625 5.505,4.595 5.505,4.065 C5.505,3.565 5.2925,3.21 4.8675,3 C4.4425,2.79 3.89,2.685 3.21,2.685 C2.92,2.685 2.6625,2.69 2.4375,2.7 C2.2125,2.71 2.02,2.725 1.86,2.745 L1.86,5.475 Z" id="形状"></path>
                    <path d="M16.2,11.4 C15.85,11.49 15.395,11.5825 14.835,11.6775 C14.275,11.7725 13.66,11.82 12.99,11.82 C12.36,11.82 11.8325,11.73 11.4075,11.55 C10.9825,11.37 10.6425,11.12 10.3875,10.8 C10.1325,10.48 9.95,10.0975 9.84,9.6525 C9.73,9.2075 9.675,8.72 9.675,8.19 L9.675,3.795 L11.49,3.795 L11.49,7.905 C11.49,8.745 11.6125,9.345 11.8575,9.705 C12.1025,10.065 12.53,10.245 13.14,10.245 C13.36,10.245 13.5925,10.235 13.8375,10.215 C14.0825,10.195 14.265,10.17 14.385,10.14 L14.385,3.795 L16.2,3.795 L16.2,11.4 Z" id="路径"></path>
                    <path d="M23.715,7.695 C23.715,6.925 23.5625,6.315 23.2575,5.865 C22.9525,5.415 22.47,5.19 21.81,5.19 C21.51,5.19 21.2275,5.235 20.9625,5.325 C20.6975,5.415 20.485,5.515 20.325,5.625 L20.325,10.14 C20.455,10.17 20.6225,10.1975 20.8275,10.2225 C21.0325,10.2475 21.28,10.26 21.57,10.26 C22.24,10.26 22.765,10.0325 23.145,9.5775 C23.525,9.1225 23.715,8.495 23.715,7.695 Z M25.575,7.725 C25.575,8.355 25.4825,8.9225 25.2975,9.4275 C25.1125,9.9325 24.8475,10.365 24.5025,10.725 C24.1575,11.085 23.74,11.36 23.25,11.55 C22.76,11.74 22.205,11.835 21.585,11.835 C20.985,11.835 20.4125,11.79 19.8675,11.7 C19.3225,11.61 18.87,11.51 18.51,11.4 L18.51,0.3 L20.325,0 L20.325,4.065 C20.535,3.955 20.7925,3.855 21.0975,3.765 C21.4025,3.675 21.74,3.63 22.11,3.63 C22.66,3.63 23.1525,3.7275 23.5875,3.9225 C24.0225,4.1175 24.385,4.395 24.675,4.755 C24.965,5.115 25.1875,5.5475 25.3425,6.0525 C25.4975,6.5575 25.575,7.115 25.575,7.725 Z" id="形状"></path>
                    <path d="M32.655,7.695 C32.655,6.925 32.5025,6.315 32.1975,5.865 C31.8925,5.415 31.41,5.19 30.75,5.19 C30.45,5.19 30.1675,5.235 29.9025,5.325 C29.6375,5.415 29.425,5.515 29.265,5.625 L29.265,10.14 C29.395,10.17 29.5625,10.1975 29.7675,10.2225 C29.9725,10.2475 30.22,10.26 30.51,10.26 C31.18,10.26 31.705,10.0325 32.085,9.5775 C32.465,9.1225 32.655,8.495 32.655,7.695 Z M34.515,7.725 C34.515,8.355 34.4225,8.9225 34.2375,9.4275 C34.0525,9.9325 33.7875,10.365 33.4425,10.725 C33.0975,11.085 32.68,11.36 32.19,11.55 C31.7,11.74 31.145,11.835 30.525,11.835 C29.925,11.835 29.3525,11.79 28.8075,11.7 C28.2625,11.61 27.81,11.51 27.45,11.4 L27.45,0.3 L29.265,0 L29.265,4.065 C29.475,3.955 29.7325,3.855 30.0375,3.765 C30.3425,3.675 30.68,3.63 31.05,3.63 C31.6,3.63 32.0925,3.7275 32.5275,3.9225 C32.9625,4.1175 33.325,4.395 33.615,4.755 C33.905,5.115 34.1275,5.5475 34.2825,6.0525 C34.4375,6.5575 34.515,7.115 34.515,7.725 Z" id="形状"></path>
                    <path d="M39.12,11.79 C38.58,11.78 38.1325,11.72 37.7775,11.61 C37.4225,11.5 37.14,11.3425 36.93,11.1375 C36.72,10.9325 36.5725,10.6775 36.4875,10.3725 C36.4025,10.0675 36.36,9.72 36.36,9.33 L36.36,0.3 L38.175,0 L38.175,8.985 C38.175,9.205 38.1925,9.39 38.2275,9.54 C38.2625,9.69 38.325,9.8175 38.415,9.9225 C38.505,10.0275 38.6275,10.1075 38.7825,10.1625 C38.9375,10.2175 39.135,10.26 39.375,10.29 L39.12,11.79 Z" id="路径"></path>
                    <path d="M40.41,7.755 C40.41,7.065 40.5125,6.46 40.7175,5.94 C40.9225,5.42 41.195,4.9875 41.535,4.6425 C41.875,4.2975 42.265,4.0375 42.705,3.8625 C43.145,3.6875 43.595,3.6 44.055,3.6 C45.135,3.6 45.9775,3.935 46.5825,4.605 C47.1875,5.275 47.49,6.275 47.49,7.605 C47.49,7.705 47.4875,7.8175 47.4825,7.9425 C47.4775,8.0675 47.47,8.18 47.46,8.28 L42.285,8.28 C42.335,8.91 42.5575,9.3975 42.9525,9.7425 C43.3475,10.0875 43.92,10.26 44.67,10.26 C45.11,10.26 45.5125,10.22 45.8775,10.14 C46.2425,10.06 46.53,9.975 46.74,9.885 L46.98,11.37 C46.88,11.42 46.7425,11.4725 46.5675,11.5275 C46.3925,11.5825 46.1925,11.6325 45.9675,11.6775 C45.7425,11.7225 45.5,11.76 45.24,11.79 C44.98,11.82 44.715,11.835 44.445,11.835 C43.755,11.835 43.155,11.7325 42.645,11.5275 C42.135,11.3225 41.715,11.0375 41.385,10.6725 C41.055,10.3075 40.81,9.8775 40.65,9.3825 C40.49,8.8875 40.41,8.345 40.41,7.755 Z M45.675,6.945 C45.675,6.695 45.64,6.4575 45.57,6.2325 C45.5,6.0075 45.3975,5.8125 45.2625,5.6475 C45.1275,5.4825 44.9625,5.3525 44.7675,5.2575 C44.5725,5.1625 44.34,5.115 44.07,5.115 C43.79,5.115 43.545,5.1675 43.335,5.2725 C43.125,5.3775 42.9475,5.515 42.8025,5.685 C42.6575,5.855 42.545,6.05 42.465,6.27 C42.385,6.49 42.33,6.715 42.3,6.945 L45.675,6.945 Z" id="形状"></path>
                    <path d="M52.02,10.23 C52.7,10.23 53.195,10.115 53.505,9.885 C53.815,9.655 53.97,9.33 53.97,8.91 C53.97,8.66 53.9175,8.445 53.8125,8.265 C53.7075,8.085 53.5575,7.9225 53.3625,7.7775 C53.1675,7.6325 52.93,7.4975 52.65,7.3725 C52.37,7.2475 52.05,7.125 51.69,7.005 C51.33,6.875 50.9825,6.7325 50.6475,6.5775 C50.3125,6.4225 50.0175,6.23 49.7625,6 C49.5075,5.77 49.3025,5.495 49.1475,5.175 C48.9925,4.855 48.915,4.47 48.915,4.02 C48.915,3.08 49.24,2.3425 49.89,1.8075 C50.54,1.2725 51.425,1.005 52.545,1.005 C53.195,1.005 53.7725,1.0775 54.2775,1.2225 C54.7825,1.3675 55.18,1.525 55.47,1.695 L54.885,3.225 C54.545,3.035 54.1725,2.89 53.7675,2.79 C53.3625,2.69 52.945,2.64 52.515,2.64 C52.005,2.64 51.6075,2.745 51.3225,2.955 C51.0375,3.165 50.895,3.46 50.895,3.84 C50.895,4.07 50.9425,4.2675 51.0375,4.4325 C51.1325,4.5975 51.2675,4.745 51.4425,4.875 C51.6175,5.005 51.8225,5.125 52.0575,5.235 C52.2925,5.345 52.55,5.45 52.83,5.55 C53.32,5.73 53.7575,5.9125 54.1425,6.0975 C54.5275,6.2825 54.8525,6.5025 55.1175,6.7575 C55.3825,7.0125 55.585,7.3125 55.725,7.6575 C55.865,8.0025 55.935,8.42 55.935,8.91 C55.935,9.85 55.6025,10.5775 54.9375,11.0925 C54.2725,11.6075 53.3,11.865 52.02,11.865 C51.59,11.865 51.1975,11.8375 50.8425,11.7825 C50.4875,11.7275 50.1725,11.66 49.8975,11.58 C49.6225,11.5 49.385,11.4175 49.185,11.3325 C48.985,11.2475 48.825,11.17 48.705,11.1 L49.26,9.555 C49.53,9.705 49.895,9.855 50.355,10.005 C50.815,10.155 51.37,10.23 52.02,10.23 Z" id="路径"></path>
                    <path d="M62.19,6.705 C61.96,7.585 61.7125,8.4425 61.4475,9.2775 C61.1825,10.1125 60.92,10.9 60.66,11.64 L59.175,11.64 C58.975,11.18 58.765,10.655 58.545,10.065 C58.325,9.475 58.105,8.845 57.885,8.175 C57.665,7.505 57.445,6.8 57.225,6.06 C57.005,5.32 56.79,4.565 56.58,3.795 L58.5,3.795 C58.59,4.215 58.695,4.6675 58.815,5.1525 C58.935,5.6375 59.06,6.1325 59.19,6.6375 C59.32,7.1425 59.455,7.635 59.595,8.115 C59.735,8.595 59.875,9.035 60.015,9.435 C60.165,8.975 60.3125,8.5 60.4575,8.01 C60.6025,7.52 60.74,7.03 60.87,6.54 C61,6.05 61.1225,5.5725 61.2375,5.1075 C61.3525,4.6425 61.455,4.205 61.545,3.795 L62.94,3.795 C63.03,4.205 63.13,4.6425 63.24,5.1075 C63.35,5.5725 63.4675,6.05 63.5925,6.54 C63.7175,7.03 63.8525,7.52 63.9975,8.01 C64.1425,8.5 64.29,8.975 64.44,9.435 C64.57,9.035 64.705,8.595 64.845,8.115 C64.985,7.635 65.1225,7.1425 65.2575,6.6375 C65.3925,6.1325 65.52,5.6375 65.64,5.1525 C65.76,4.6675 65.865,4.215 65.955,3.795 L67.83,3.795 C67.62,4.565 67.405,5.32 67.185,6.06 C66.965,6.8 66.745,7.505 66.525,8.175 C66.305,8.845 66.085,9.475 65.865,10.065 C65.645,10.655 65.43,11.18 65.22,11.64 L63.75,11.64 C63.49,10.9 63.2225,10.1125 62.9475,9.2775 C62.6725,8.4425 62.42,7.585 62.19,6.705 Z" id="路径"></path>
                    <path d="M71.97,10.365 C72.53,10.365 72.955,10.335 73.245,10.275 L73.245,8.265 C73.145,8.235 73,8.205 72.81,8.175 C72.62,8.145 72.41,8.13 72.18,8.13 C71.98,8.13 71.7775,8.145 71.5725,8.175 C71.3675,8.205 71.1825,8.26 71.0175,8.34 C70.8525,8.42 70.72,8.5325 70.62,8.6775 C70.52,8.8225 70.47,9.005 70.47,9.225 C70.47,9.655 70.605,9.9525 70.875,10.1175 C71.145,10.2825 71.51,10.365 71.97,10.365 Z M71.82,3.6 C72.42,3.6 72.925,3.675 73.335,3.825 C73.745,3.975 74.0725,4.185 74.3175,4.455 C74.5625,4.725 74.7375,5.0525 74.8425,5.4375 C74.9475,5.8225 75,6.245 75,6.705 L75,11.46 C74.72,11.52 74.2975,11.5925 73.7325,11.6775 C73.1675,11.7625 72.53,11.805 71.82,11.805 C71.35,11.805 70.92,11.76 70.53,11.67 C70.14,11.58 69.8075,11.435 69.5325,11.235 C69.2575,11.035 69.0425,10.775 68.8875,10.455 C68.7325,10.135 68.655,9.74 68.655,9.27 C68.655,8.82 68.7425,8.44 68.9175,8.13 C69.0925,7.82 69.33,7.5675 69.63,7.3725 C69.93,7.1775 70.2775,7.0375 70.6725,6.9525 C71.0675,6.8675 71.48,6.825 71.91,6.825 C72.11,6.825 72.32,6.8375 72.54,6.8625 C72.76,6.8875 72.995,6.93 73.245,6.99 L73.245,6.69 C73.245,6.48 73.22,6.28 73.17,6.09 C73.12,5.9 73.0325,5.7325 72.9075,5.5875 C72.7825,5.4425 72.6175,5.33 72.4125,5.25 C72.2075,5.17 71.95,5.13 71.64,5.13 C71.22,5.13 70.835,5.16 70.485,5.22 C70.135,5.28 69.85,5.35 69.63,5.43 L69.405,3.96 C69.635,3.88 69.97,3.8 70.41,3.72 C70.85,3.64 71.32,3.6 71.82,3.6 Z" id="形状"></path>
                    <path d="M82.425,7.755 C82.425,6.945 82.2425,6.315 81.8775,5.865 C81.5125,5.415 80.925,5.19 80.115,5.19 C79.945,5.19 79.7675,5.1975 79.5825,5.2125 C79.3975,5.2275 79.215,5.26 79.035,5.31 L79.035,9.795 C79.195,9.905 79.4075,10.0075 79.6725,10.1025 C79.9375,10.1975 80.22,10.245 80.52,10.245 C81.18,10.245 81.6625,10.02 81.9675,9.57 C82.2725,9.12 82.425,8.515 82.425,7.755 Z M84.285,7.725 C84.285,8.325 84.2075,8.875 84.0525,9.375 C83.8975,9.875 83.675,10.305 83.385,10.665 C83.095,11.025 82.7325,11.305 82.2975,11.505 C81.8625,11.705 81.37,11.805 80.82,11.805 C80.45,11.805 80.11,11.76 79.8,11.67 C79.49,11.58 79.235,11.48 79.035,11.37 L79.035,14.415 L77.22,14.415 L77.22,4.05 C77.59,3.95 78.045,3.855 78.585,3.765 C79.125,3.675 79.695,3.63 80.295,3.63 C80.915,3.63 81.47,3.725 81.96,3.915 C82.45,4.105 82.8675,4.3775 83.2125,4.7325 C83.5575,5.0875 83.8225,5.5175 84.0075,6.0225 C84.1925,6.5275 84.285,7.095 84.285,7.725 Z" id="形状"></path>
                </g>
                <g id="编组-9">
                    <rect id="矩形" fill="url(#linearGradient-1)" x="0" y="0" width="13.1832797" height="6.62430493"></rect>
                    <rect id="矩形" stroke="#979797" stroke-width="0.5" fill="#D8D8D8" x="0.25" y="7.43737085" width="12.6832797" height="6.12430493"></rect>
                    <rect id="矩形" stroke="#979797" stroke-width="0.5" fill="#D8D8D8" x="0.25" y="14.6247417" width="12.6832797" height="6.12430493"></rect>
                    <rect id="矩形" fill="url(#linearGradient-1)" x="0" y="7.18737085" width="13.1832797" height="6.62430493"></rect>
                    <rect id="矩形" fill="url(#linearGradient-1)" x="0" y="14.3747417" width="13.1832797" height="6.62430493"></rect>
                    <ellipse id="椭圆形" fill="url(#linearGradient-2)" cx="13.2958199" cy="6.90583789" rx="6.70418006" ry="6.90583789"></ellipse>
                    <path d="M13.1831139,0.002 L13.1832797,6.62430493 L6.59711389,6.62419301 C6.74055036,2.9407926 9.6847842,0 13.2958199,0 L13.1831139,0.002 Z" id="形状结合" fill-opacity="0.552556818" fill="#FFFFFF"></path>
                    <ellipse id="椭圆形" fill="url(#linearGradient-2)" cx="13.2958199" cy="14.0932087" rx="6.70418006" ry="6.90583789"></ellipse>
                    <path d="M13.1831139,7.18937085 L13.1832797,13.8116758 L6.59711389,13.8115639 C6.74055036,10.1281634 9.6847842,7.18737085 13.2958199,7.18737085 L13.1831139,7.18937085 Z" id="形状结合" fill-opacity="0.552556818" fill="#FFFFFF"></path>
                    <path d="M13.1831139,14.3776951 L13.1832797,21 L6.59711389,20.9998881 C6.74055036,17.3164877 9.6847842,14.3756951 13.2958199,14.3756951 L13.1831139,14.3776951 Z" id="形状结合" fill-opacity="0.552556818" fill="#FFFFFF" transform="translate(9.946467, 17.687848) scale(1, -1) translate(-9.946467, -17.687848) "></path>
                    <path d="M13.1831139,7.19032423 L13.1832797,13.8126292 L6.59711389,13.8125172 C6.74055036,10.1291168 9.6847842,7.18832423 13.2958199,7.18832423 L13.1831139,7.19032423 Z" id="形状结合" fill-opacity="0.552556818" fill="#FFFFFF" transform="translate(9.946467, 10.500477) scale(1, -1) translate(-9.946467, -10.500477) "></path>
                    <path d="M13.2958199,7.18737085 C15.7204194,7.18737085 17.844402,8.51317942 19.0217892,10.4993873 C17.8442418,12.4859672 15.720328,13.8116758 13.2958199,13.8116758 C10.8713119,13.8116758 8.74739804,12.4859672 7.56998383,10.499884 C8.74723787,8.51317942 10.8712205,7.18737085 13.2958199,7.18737085 Z" id="形状结合" fill="#FFFFFF" opacity="0.627861555"></path>
                </g>
            </g>
        </g>
    </g>
</svg>